<svg width="64" height="40" viewBox="0 0 64 40" fill="none" xmlns="http://www.w3.org/2000/svg">
<rect width="64" height="40" rx="4" fill="white"/>
<rect width="64" height="40" rx="4" fill="white"/>
<g clip-path="url(#clip0)">
<path fill-rule="evenodd" clip-rule="evenodd" d="M51.9999 29.7411C51.9999 33.1973 49.2152 36 45.7781 36H12V11.2598C12 7.80262 14.785 5.00004 18.2222 5.00004L51.9998 5V29.7411H51.9999V29.7411Z" fill="white"/>
<path fill-rule="evenodd" clip-rule="evenodd" d="M40.9876 21.0429H41.0098H41.0527H41.0956H41.1385H41.1814H41.2242H41.2672H41.31H41.353H41.3958H41.4387H41.4816H41.5245H41.5674H41.6103H41.6532H41.6961H41.739H41.7819H41.8247H41.8677H41.9105H41.9534H41.9963H42.0392H42.0821H42.125H42.1679H42.2108H42.2537H42.2966H42.3395H42.3824H42.4253H42.4682H42.5111H42.5539H42.5968H42.6397H42.6826H42.7255H42.7684H42.8113H42.8542H42.8971H42.94H42.9829H43.0258H43.0686H43.1116H43.1544H43.1973H43.2402H43.2831H43.326H43.3689H43.4118H43.4547H43.4976H43.5405H43.5762L43.5834 21.0431C43.5966 21.0434 43.6111 21.044 43.6263 21.0449C43.64 21.0456 43.6544 21.0466 43.6692 21.0477C43.6833 21.0487 43.6977 21.0499 43.7121 21.0513C43.7265 21.0526 43.7409 21.0541 43.7549 21.0556C43.7697 21.0573 43.7841 21.059 43.7978 21.0609C43.8132 21.063 43.8277 21.0651 43.8407 21.0674C43.8502 21.069 43.8589 21.0706 43.8667 21.0723L43.8836 21.0762C43.898 21.0795 43.9123 21.0832 43.9265 21.0871C43.9409 21.0911 43.9552 21.0954 43.9694 21.0999C43.9838 21.1046 43.9981 21.1095 44.0123 21.1146C44.0267 21.1199 44.041 21.1254 44.0552 21.1313C44.0696 21.1372 44.0839 21.1435 44.0981 21.15C44.1125 21.1566 44.1268 21.1635 44.141 21.1708C44.1554 21.1782 44.1697 21.1859 44.1839 21.1939C44.1983 21.2021 44.2127 21.2107 44.2268 21.2195C44.2413 21.2286 44.2556 21.2379 44.2697 21.2477C44.2842 21.2577 44.2985 21.268 44.3125 21.2786C44.3271 21.2897 44.3414 21.3011 44.3555 21.3129C44.37 21.3251 44.3843 21.3377 44.3983 21.3507C44.413 21.3642 44.4273 21.3781 44.4413 21.3924C44.456 21.4074 44.4702 21.423 44.4841 21.4389C44.4989 21.4558 44.5132 21.4732 44.527 21.4911C44.5419 21.5103 44.5562 21.53 44.5699 21.5502C44.5849 21.5724 44.5993 21.5952 44.6128 21.6185C44.6281 21.6448 44.6424 21.672 44.6557 21.6998C44.6715 21.7328 44.6858 21.7667 44.6986 21.8017C44.7158 21.8486 44.7301 21.8973 44.7415 21.9476C44.7611 22.0347 44.7717 22.1264 44.7717 22.2222C44.7717 22.3185 44.7612 22.4106 44.7415 22.498C44.7301 22.5484 44.7158 22.5972 44.6986 22.6442C44.6858 22.6793 44.6715 22.7133 44.6557 22.7464C44.6424 22.7742 44.6281 22.8014 44.6128 22.8277C44.5993 22.8511 44.585 22.8739 44.5699 22.896C44.5562 22.9163 44.5419 22.936 44.527 22.9552C44.5132 22.9731 44.4989 22.9904 44.4841 23.0074C44.4702 23.0233 44.4559 23.0388 44.4413 23.0539C44.4273 23.0682 44.413 23.082 44.3983 23.0955C44.3843 23.1084 44.37 23.121 44.3555 23.1332C44.3414 23.1449 44.3271 23.1563 44.3125 23.1673C44.2985 23.1779 44.2842 23.1882 44.2697 23.1982C44.2556 23.2079 44.2413 23.2172 44.2268 23.2262C44.2127 23.235 44.1983 23.2435 44.1839 23.2517C44.1697 23.2597 44.1555 23.2673 44.141 23.2747C44.1268 23.2818 44.1125 23.2887 44.0981 23.2954C44.0839 23.3018 44.0696 23.308 44.0552 23.3139C44.041 23.3197 44.0267 23.3252 44.0123 23.3304C43.9981 23.3355 43.9838 23.3403 43.9694 23.3449C43.9552 23.3494 43.9409 23.3536 43.9265 23.3575C43.9123 23.3614 43.898 23.365 43.8836 23.3683L43.8667 23.3721C43.8589 23.3739 43.8502 23.3757 43.8407 23.3773C43.8277 23.3797 43.8132 23.3819 43.7978 23.384C43.7841 23.3859 43.7697 23.3876 43.7549 23.3893C43.7409 23.3909 43.7265 23.3923 43.7121 23.3936C43.6977 23.3949 43.6833 23.3961 43.6692 23.3971C43.6544 23.3982 43.64 23.3991 43.6263 23.3998C43.6111 23.4006 43.5966 23.4012 43.5834 23.4015L43.5604 23.4018H43.5405H43.4976H43.4547H43.4118H43.3689H43.326H43.2831H43.2402H43.1973H43.1544H43.1116H43.0686H43.0258H42.9829H42.94H42.8971H42.8542H42.8113H42.7684H42.7255H42.6826H42.6397H42.5968H42.5539H42.5111H42.4682H42.4253H42.3824H42.3395H42.2966H42.2537H42.2108H42.1679H42.125H42.0821H42.0392H41.9963H41.9534H41.9105H41.8677H41.8247H41.7819H41.739H41.6961H41.6532H41.6103H41.5674H41.5245H41.4816H41.4387H41.3958H41.353H41.31H41.2672H41.2242H41.1814H41.1385H41.0956H41.0527H41.0098H40.9876V21.0429V21.0429ZM44.4414 18.3732C44.4586 18.4524 44.4679 18.5363 44.4679 18.6246C44.4679 18.7127 44.4586 18.7965 44.4414 18.8757C44.4303 18.9265 44.4159 18.9753 44.3985 19.0222C44.3858 19.0564 44.3714 19.0895 44.3556 19.1214C44.3423 19.1482 44.328 19.1742 44.3127 19.1994C44.2992 19.2216 44.2848 19.2432 44.2698 19.2642C44.2561 19.2833 44.2418 19.3018 44.2269 19.3198C44.2131 19.3365 44.1988 19.3528 44.184 19.3685C44.1701 19.3834 44.1558 19.3977 44.1412 19.4116C44.1272 19.4248 44.1129 19.4377 44.0982 19.4501C44.0842 19.462 44.0699 19.4735 44.0554 19.4846C44.0413 19.4953 44.027 19.5056 44.0125 19.5157C43.9984 19.5253 43.9841 19.5346 43.9696 19.5436C43.9555 19.5523 43.9412 19.5607 43.9267 19.5688C43.9126 19.5766 43.8983 19.5842 43.8838 19.5915C43.8697 19.5985 43.8553 19.6053 43.8409 19.6118C43.8267 19.6181 43.8124 19.6241 43.798 19.6298C43.7838 19.6354 43.7695 19.6408 43.7551 19.6458C43.7409 19.6508 43.7266 19.6555 43.7122 19.6598C43.698 19.6642 43.6837 19.6682 43.6693 19.672C43.6551 19.6757 43.6408 19.6792 43.6264 19.6823C43.6123 19.6855 43.5979 19.6882 43.5836 19.6908L43.5732 19.6927C43.5648 19.6942 43.5537 19.6958 43.5407 19.6975C43.528 19.6991 43.5135 19.7008 43.4978 19.7023C43.4842 19.7037 43.4698 19.7051 43.4549 19.7063C43.4408 19.7075 43.4264 19.7086 43.412 19.7095C43.3976 19.7104 43.3831 19.7112 43.3691 19.7118C43.3542 19.7124 43.3398 19.7128 43.3262 19.7129L43.3194 19.7129H43.2833H43.2404H43.1975H43.1547H43.1117H43.0689H43.026H42.9831H42.9402H42.8973H42.8544H42.8115H42.7686H42.7257H42.6828H42.6399H42.5971H42.5542H42.5113H42.4684H42.4255H42.3826H42.3397H42.2968H42.2539H42.211H42.1681H42.1253H42.0824H42.0395H41.9966H41.9537H41.9108H41.8679H41.825H41.7821H41.7392H41.6964H41.6534H41.6106H41.5677H41.5248H41.4819H41.439H41.3961H41.3532H41.3103H41.2674H41.2245H41.1816H41.1388H41.0958H41.053H41.0101H40.9876V17.5361H41.0101H41.053H41.0958H41.1388H41.1816H41.2245H41.2674H41.3103H41.3532H41.3961H41.439H41.4819H41.5248H41.5677H41.6106H41.6534H41.6964H41.7392H41.7821H41.825H41.8679H41.9108H41.9537H41.9966H42.0395H42.0824H42.1253H42.1681H42.211H42.2539H42.2968H42.3397H42.3826H42.4255H42.4684H42.5113H42.5542H42.5971H42.6399H42.6828H42.7257H42.7686H42.8115H42.8544H42.8973H42.9402H42.9831H43.026H43.0689H43.1117H43.1547H43.1975H43.2404H43.2833H43.3262H43.3443L43.3691 17.537C43.3831 17.5375 43.3976 17.5384 43.412 17.5393C43.4264 17.5403 43.4408 17.5413 43.4549 17.5425C43.4698 17.5437 43.4842 17.545 43.4978 17.5464C43.5135 17.5479 43.528 17.5494 43.5407 17.5509C43.5537 17.5524 43.5648 17.5538 43.5732 17.555L43.5836 17.5569C43.5979 17.5595 43.6123 17.5624 43.6264 17.5656C43.6408 17.5688 43.6551 17.5723 43.6693 17.576C43.6837 17.5798 43.698 17.5839 43.7122 17.5883C43.7266 17.5927 43.7409 17.5974 43.7551 17.6024C43.7695 17.6075 43.7838 17.6128 43.798 17.6185C43.8124 17.6242 43.8267 17.6303 43.8409 17.6366C43.8553 17.6432 43.8697 17.6499 43.8838 17.657C43.8983 17.6643 43.9126 17.6718 43.9267 17.6797C43.9412 17.6878 43.9555 17.6962 43.9696 17.7049C43.9841 17.7139 43.9984 17.7232 44.0125 17.7329C44.027 17.7429 44.0413 17.7533 44.0554 17.7641C44.0699 17.7752 44.0842 17.7867 44.0982 17.7985C44.1129 17.811 44.1272 17.8238 44.1412 17.8371C44.1558 17.851 44.1701 17.8653 44.184 17.8801C44.1988 17.8959 44.2131 17.9121 44.2269 17.9289C44.2418 17.9469 44.2561 17.9654 44.2698 17.9845C44.2848 18.0055 44.2992 18.0271 44.3127 18.0493C44.328 18.0745 44.3423 18.1005 44.3556 18.1273C44.3714 18.1592 44.3858 18.1924 44.3985 18.2266C44.4159 18.2734 44.4303 18.3223 44.4414 18.3732V18.3732ZM49.7607 7.08594H49.7783L49.7783 29.4418C49.7783 29.5753 49.7721 29.7075 49.7607 29.8381C49.7507 29.953 49.7363 30.0667 49.7178 30.1789C49.7053 30.2544 49.6911 30.3291 49.6749 30.4032C49.6618 30.4635 49.6475 30.5234 49.632 30.5827C49.6186 30.6339 49.6043 30.6848 49.5891 30.7352C49.5754 30.7809 49.5613 30.8263 49.5462 30.8713C49.5325 30.9121 49.5181 30.9526 49.5033 30.9929C49.4895 31.0305 49.4752 31.0677 49.4604 31.1048C49.4465 31.1396 49.4322 31.1741 49.4175 31.2085C49.4036 31.2411 49.3893 31.2734 49.3746 31.3056C49.3606 31.3362 49.3463 31.3667 49.3317 31.3969C49.3177 31.4259 49.3034 31.4547 49.2888 31.4834C49.2748 31.5108 49.2605 31.5381 49.2459 31.5652C49.2319 31.5913 49.2175 31.6171 49.203 31.6428C49.189 31.6677 49.1746 31.6925 49.1601 31.7171C49.146 31.7411 49.1317 31.7649 49.1172 31.7886C49.1031 31.8116 49.0888 31.8346 49.0743 31.8574C49.0602 31.8794 49.0458 31.9013 49.0314 31.923C49.0173 31.9442 49.0029 31.9652 48.9885 31.9862C48.9743 32.0067 48.9601 32.0272 48.9456 32.0475C48.9314 32.0674 48.9172 32.0871 48.9027 32.1067C48.8886 32.1258 48.8742 32.1446 48.8598 32.1635C48.8456 32.1821 48.8313 32.2006 48.8169 32.2189C48.8027 32.2369 48.7885 32.2547 48.774 32.2725C48.7598 32.2898 48.7455 32.307 48.7311 32.3242C48.7169 32.3411 48.7027 32.3581 48.6882 32.3749C48.674 32.3912 48.6597 32.4074 48.6453 32.4235C48.6311 32.4394 48.6168 32.4553 48.6024 32.471C48.5882 32.4866 48.574 32.502 48.5595 32.5174C48.5454 32.5324 48.531 32.5471 48.5166 32.562C48.5023 32.5767 48.4882 32.5915 48.4737 32.6061C48.4595 32.6203 48.4451 32.6342 48.4308 32.6482C48.4165 32.6621 48.4023 32.6761 48.3879 32.6898C48.3737 32.7033 48.3594 32.7166 48.345 32.7299C48.3308 32.7431 48.3165 32.7562 48.3021 32.7692C48.2879 32.7821 48.2736 32.7948 48.2592 32.8075C48.245 32.82 48.2307 32.8324 48.2163 32.8447C48.202 32.857 48.1878 32.8692 48.1734 32.8812C48.1592 32.8931 48.1449 32.9048 48.1305 32.9165C48.1162 32.9281 48.102 32.9397 48.0876 32.9512C48.0734 32.9625 48.059 32.9736 48.0447 32.9847C48.0304 32.9958 48.0162 33.0068 48.0018 33.0177C47.9876 33.0285 47.9732 33.039 47.9589 33.0496C47.9446 33.0601 47.9304 33.0707 47.916 33.0811C47.9018 33.0913 47.8874 33.1013 47.8731 33.1113C47.8588 33.1213 47.8446 33.1314 47.8302 33.1413C47.816 33.151 47.8016 33.1605 47.7873 33.1701C47.773 33.1796 47.7588 33.1891 47.7444 33.1985C47.7302 33.2078 47.7158 33.2168 47.7015 33.2259C47.6873 33.235 47.673 33.244 47.6586 33.2529C47.6444 33.2617 47.6301 33.2704 47.6157 33.279L47.5728 33.3046C47.5585 33.3129 47.5443 33.3213 47.5299 33.3295C47.5157 33.3377 47.5013 33.3457 47.487 33.3537C47.4727 33.3617 47.4585 33.3697 47.4441 33.3775C47.4299 33.3852 47.4155 33.3927 47.4012 33.4003C47.3869 33.4079 47.3727 33.4156 47.3583 33.4231C47.3441 33.4304 47.3297 33.4374 47.3154 33.4446C47.3011 33.4518 47.2869 33.459 47.2725 33.466C47.2583 33.4729 47.2439 33.4797 47.2296 33.4865L47.1867 33.5067L47.1438 33.5263C47.1296 33.5327 47.1152 33.5389 47.1009 33.5452C47.0866 33.5514 47.0724 33.5578 47.058 33.5639C47.0438 33.5699 47.0294 33.5756 47.0151 33.5815C47.0008 33.5874 46.9866 33.5934 46.9722 33.5991C46.958 33.6048 46.9436 33.6102 46.9293 33.6158C46.915 33.6213 46.9008 33.6268 46.8864 33.6321L46.8435 33.6481C46.8292 33.6532 46.8149 33.6583 46.8006 33.6633C46.7863 33.6683 46.7721 33.6735 46.7577 33.6784C46.7435 33.6833 46.7291 33.6878 46.7148 33.6924L46.6719 33.7064C46.6577 33.711 46.6433 33.7153 46.629 33.7197L46.5861 33.7326C46.5718 33.7368 46.5576 33.7411 46.5432 33.7452C46.529 33.7492 46.5146 33.753 46.5003 33.7569C46.486 33.7608 46.4718 33.7648 46.4574 33.7686L46.4145 33.7794L46.3716 33.79L46.3287 33.8003C46.3145 33.8035 46.3001 33.8065 46.2858 33.8097C46.2715 33.8128 46.2573 33.8161 46.2429 33.8191L46.2 33.8277L46.1571 33.8359C46.1428 33.8386 46.1285 33.8415 46.1142 33.8441C46.1 33.8466 46.0856 33.8488 46.0713 33.8512L46.0284 33.8584L45.9855 33.8648L45.9426 33.8709C45.9283 33.8729 45.9141 33.8751 45.8997 33.8769C45.8854 33.8788 45.8711 33.8802 45.8568 33.8819C45.8425 33.8836 45.8282 33.8853 45.8139 33.8868C45.7996 33.8883 45.7854 33.8899 45.771 33.8913C45.7568 33.8927 45.7424 33.8939 45.7281 33.8951C45.7138 33.8964 45.6995 33.8978 45.6852 33.899C45.6709 33.9001 45.6566 33.901 45.6423 33.902L45.5994 33.9047C45.5851 33.9056 45.5708 33.9066 45.5565 33.9073C45.5423 33.908 45.5279 33.9084 45.5136 33.909L45.4707 33.9106L45.4278 33.9117C45.4135 33.912 45.3992 33.9121 45.3849 33.9123L45.342 33.9128L45.3331 33.9129H45.2991H45.2562H45.2133H45.1704H45.1275H45.0846H45.0417H44.9988H44.9559H44.913H44.8701H44.8272H44.7843H44.7414H44.6985H44.6556H44.6127H44.5698H44.5269H44.484H44.4411H44.3982H44.3553H44.3124H44.2695H44.2266H44.1837H44.1408H44.0979H44.055H44.0121H43.9692H43.9263H43.8834H43.8405H43.7976H43.7547H43.7118H43.6689H43.626H43.5831H43.5402H43.4973H43.4544H43.4115H43.3686H43.3257H43.2828H43.2399H43.197H43.1541H43.1112H43.0683H43.0254H42.9825H42.9396H42.8967H42.8538H42.8109H42.768H42.7251H42.6822H42.6393H42.5964H42.5535H42.5106H42.4677H42.4248H42.3819H42.339H42.2961H42.2532H42.2103H42.1674H42.1245H42.0816H42.0387H41.9958H41.9529H41.91H41.8671H41.8242H41.7813H41.7384H41.6955H41.6526H41.6097H41.5668H41.5239H41.481H41.4381H41.3952H41.3523H41.3094H41.2665H41.2236H41.1807H41.1378H41.0949H41.052H41.0091H40.9662H40.9233H40.8804H40.8375H40.7946H40.7517H40.7088H40.6659H40.623H40.5801H40.5372H40.4943H40.4514H40.4085H40.3656H40.3227H40.2798H40.2369H40.194H40.1511H40.1082H40.0653H40.0224H39.9795H39.9366H39.8937H39.8508H39.8079H39.765H39.7221H39.6792H39.6363H39.5934H39.5505H39.5076H39.4647H39.4218H39.3789H39.336H39.2931H39.2502H39.2073H39.1644H39.1215H39.0786H39.0357H38.9928H38.9499H38.907H38.8145V24.7977H38.907H38.9499H38.9928H39.0357H39.0786H39.1215H39.1644H39.2073H39.2502H39.2931H39.336H39.3789H39.4218H39.4647H39.5076H39.5505H39.5934H39.6363H39.6792H39.7221H39.765H39.8079H39.8508H39.8937H39.9366H39.9795H40.0224H40.0653H40.1082H40.1511H40.194H40.2369H40.2798H40.3227H40.3656H40.4085H40.4514H40.4943H40.5372H40.5801H40.623H40.6659H40.7088H40.7517H40.7946H40.8375H40.8804H40.9233H40.9662H41.0091H41.052H41.0949H41.1378H41.1807H41.2236H41.2665H41.3094H41.3523H41.3952H41.4381H41.481H41.5239H41.5668H41.6097H41.6526H41.6955H41.7384H41.7813H41.8242H41.8671H41.91H41.9529H41.9958H42.0387H42.0816H42.1245H42.1674H42.2103H42.2532H42.2961H42.339H42.3819H42.4248H42.4677H42.5106H42.5535H42.5964H42.6393H42.6822H42.7251H42.768H42.8109H42.8538H42.8967H42.9396H42.9825H43.0254H43.0683H43.1112H43.1541H43.197H43.2399H43.2828H43.3257H43.3686H43.4115H43.4544H43.4973H43.5402H43.5831H43.626H43.6689H43.7118H43.7547H43.7976H43.8405H43.8834H43.9263H43.9692H44.0121H44.055H44.0979H44.1408H44.1837H44.2266H44.2695H44.3124H44.3553H44.3982H44.4411H44.484H44.5269H44.5698H44.6127H44.6556H44.6985H44.7414H44.7843H44.8272H44.8701H44.913H44.9559H44.9988H45.0417H45.0846H45.1275H45.1704H45.2133H45.2562H45.2991H45.342H45.3849H45.4278H45.4707H45.5136H45.5565H45.5994H45.6423H45.6852H45.7079L45.7281 24.7975L45.771 24.7971L45.8139 24.7962C45.8282 24.7959 45.8426 24.7957 45.8568 24.7952C45.8712 24.7947 45.8854 24.794 45.8997 24.7933L45.9426 24.7913L45.9855 24.7887L46.0284 24.7858L46.0713 24.7824L46.1142 24.7784C46.1285 24.7771 46.1429 24.7757 46.1571 24.7742C46.1715 24.7727 46.1857 24.771 46.2 24.7693L46.2429 24.7641C46.2573 24.7622 46.2715 24.7604 46.2858 24.7584C46.3002 24.7564 46.3144 24.7542 46.3287 24.7521C46.343 24.7499 46.3574 24.7477 46.3716 24.7454L46.4145 24.7381L46.4574 24.7304C46.4717 24.7277 46.4861 24.7251 46.5003 24.7223C46.5147 24.7194 46.5289 24.7163 46.5432 24.7133L46.5861 24.704C46.6004 24.7008 46.6148 24.6976 46.629 24.6942C46.6434 24.6908 46.6577 24.6872 46.6719 24.6836C46.6862 24.68 46.7006 24.6764 46.7148 24.6726C46.7291 24.6688 46.7435 24.665 46.7577 24.661C46.7721 24.6571 46.7863 24.6529 46.8006 24.6487C46.815 24.6445 46.8293 24.6403 46.8435 24.6359L46.8864 24.6224C46.9008 24.6178 46.915 24.613 46.9293 24.6082C46.9437 24.6033 46.958 24.5984 46.9722 24.5934C46.9866 24.5883 47.0009 24.5832 47.0151 24.578C47.0295 24.5726 47.0438 24.5671 47.058 24.5616C47.0724 24.556 47.0867 24.5503 47.1009 24.5446C47.1153 24.5387 47.1296 24.5329 47.1438 24.5269C47.1582 24.5209 47.1725 24.5146 47.1867 24.5083C47.2011 24.502 47.2154 24.4955 47.2296 24.4889C47.244 24.4822 47.2583 24.4755 47.2725 24.4687C47.2869 24.4618 47.3012 24.4548 47.3154 24.4477C47.3298 24.4404 47.3441 24.4331 47.3583 24.4256C47.3727 24.4181 47.387 24.4103 47.4012 24.4025C47.4156 24.3946 47.4299 24.3866 47.4441 24.3785C47.4585 24.3703 47.4728 24.3619 47.487 24.3535C47.5014 24.3449 47.5158 24.3362 47.5299 24.3274C47.5444 24.3183 47.5586 24.3092 47.5728 24.2999C47.5873 24.2905 47.6015 24.2809 47.6157 24.2712C47.6301 24.2614 47.6444 24.2513 47.6586 24.2412C47.6731 24.2309 47.6874 24.2204 47.7015 24.2099C47.716 24.199 47.7303 24.1881 47.7444 24.177C47.7589 24.1656 47.7732 24.1542 47.7873 24.1426C47.8018 24.1307 47.8161 24.1186 47.8302 24.1064C47.8447 24.0939 47.859 24.0812 47.8731 24.0683C47.8876 24.0551 47.9019 24.0417 47.916 24.0282C47.9305 24.0142 47.9448 24.0001 47.9589 23.9858C47.9735 23.971 47.9877 23.956 48.0018 23.9409C48.0164 23.9252 48.0307 23.9093 48.0447 23.8932C48.0593 23.8765 48.0736 23.8596 48.0876 23.8425C48.1022 23.8246 48.1165 23.8066 48.1305 23.7883C48.1451 23.7691 48.1595 23.7498 48.1734 23.7302C48.1882 23.7093 48.2024 23.6881 48.2163 23.6667C48.231 23.6441 48.2454 23.6211 48.2592 23.5979C48.2741 23.5729 48.2884 23.5475 48.3021 23.5218C48.317 23.4939 48.3314 23.4656 48.345 23.4369C48.3602 23.4048 48.3744 23.3722 48.3879 23.3391C48.4033 23.3012 48.4177 23.2628 48.4308 23.2237C48.4469 23.1755 48.4612 23.1263 48.4737 23.0762C48.492 23.0031 48.5064 22.928 48.5166 22.8511C48.529 22.7578 48.5356 22.6619 48.5356 22.5634C48.5356 22.4674 48.5291 22.3742 48.5166 22.2837C48.5063 22.2093 48.492 22.1368 48.4737 22.0662C48.4612 22.0181 48.4469 21.9709 48.4308 21.9247C48.4176 21.8867 48.4034 21.8493 48.3879 21.8126C48.3745 21.7808 48.3602 21.7495 48.345 21.7186C48.3314 21.6909 48.3171 21.6635 48.3021 21.6365C48.2883 21.6117 48.2741 21.5872 48.2592 21.563C48.2454 21.5406 48.231 21.5185 48.2163 21.4967C48.2024 21.4761 48.1881 21.4556 48.1734 21.4356C48.1595 21.4166 48.1451 21.398 48.1305 21.3795C48.1165 21.3618 48.1022 21.3444 48.0876 21.3272C48.0736 21.3107 48.0593 21.2943 48.0447 21.2781C48.0307 21.2626 48.0164 21.2473 48.0018 21.2321C47.9878 21.2176 47.9734 21.2032 47.9589 21.1889C47.9448 21.1751 47.9305 21.1615 47.916 21.1481C47.9019 21.135 47.8876 21.1221 47.8731 21.1094C47.859 21.097 47.8447 21.0847 47.8302 21.0726C47.8161 21.0608 47.8018 21.0492 47.7873 21.0376C47.7732 21.0264 47.7589 21.0153 47.7444 21.0043C47.7302 20.9936 47.7159 20.9831 47.7015 20.9726C47.6874 20.9623 47.673 20.9522 47.6586 20.9422C47.6444 20.9325 47.6301 20.9228 47.6157 20.9132C47.6015 20.9039 47.5872 20.8946 47.5728 20.8855C47.5586 20.8765 47.5444 20.8677 47.5299 20.8589C47.5158 20.8504 47.5014 20.8419 47.487 20.8336C47.4728 20.8254 47.4585 20.8173 47.4441 20.8094C47.4299 20.8015 47.4156 20.7938 47.4012 20.7861C47.387 20.7786 47.3727 20.7712 47.3583 20.7638C47.3441 20.7566 47.3298 20.7494 47.3154 20.7423C47.3012 20.7354 47.2869 20.7285 47.2725 20.7217C47.2583 20.7151 47.244 20.7086 47.2296 20.7022C47.2154 20.6958 47.2011 20.6895 47.1867 20.6834C47.1725 20.6772 47.1582 20.6712 47.1438 20.6653C47.1296 20.6594 47.1153 20.6536 47.1009 20.6479C47.0867 20.6423 47.0724 20.6367 47.058 20.6313C47.0438 20.6259 47.0295 20.6207 47.0151 20.6155C47.0009 20.6103 46.9866 20.6053 46.9722 20.6003C46.958 20.5954 46.9437 20.5905 46.9293 20.5857C46.9151 20.581 46.9008 20.5764 46.8864 20.5718C46.8722 20.5673 46.8578 20.563 46.8435 20.5586L46.8006 20.546C46.7863 20.5419 46.7721 20.5377 46.7577 20.5338C46.7435 20.5299 46.7291 20.5261 46.7148 20.5224C46.7006 20.5187 46.6863 20.5151 46.6719 20.5116C46.6577 20.508 46.6434 20.5045 46.629 20.5011C46.6148 20.4978 46.6004 20.4945 46.5861 20.4913C46.5719 20.4882 46.5576 20.4851 46.5432 20.4821C46.5289 20.4791 46.5147 20.4761 46.5003 20.4733L46.4574 20.465L46.4145 20.4573C46.4003 20.4548 46.386 20.4523 46.3716 20.45L46.3287 20.4432C46.3145 20.441 46.3001 20.439 46.2858 20.437L46.2429 20.4311L46.2 20.4256L46.1571 20.4208L46.1142 20.4162L46.0713 20.4122L46.0284 20.4086L45.9888 20.4055L45.9888 20.3538L46.0284 20.3476L46.0713 20.3405C46.0857 20.338 46.1 20.3356 46.1142 20.333L46.1571 20.3247C46.1715 20.3218 46.1858 20.3188 46.2 20.3158L46.2429 20.3064C46.2573 20.3031 46.2716 20.2998 46.2858 20.2964C46.3002 20.2929 46.3145 20.2893 46.3287 20.2856C46.3431 20.2819 46.3574 20.2781 46.3716 20.2742C46.386 20.2703 46.4003 20.2663 46.4145 20.2621C46.4289 20.258 46.4432 20.2538 46.4574 20.2495C46.4718 20.2451 46.4861 20.2406 46.5003 20.236C46.5147 20.2314 46.529 20.2266 46.5432 20.2218C46.5576 20.2169 46.5719 20.2118 46.5861 20.2067C46.6005 20.2016 46.6148 20.1964 46.629 20.191C46.6434 20.1856 46.6577 20.1801 46.6719 20.1744C46.6863 20.1688 46.7006 20.1629 46.7148 20.157C46.7292 20.151 46.7435 20.1449 46.7577 20.1387C46.7721 20.1324 46.7864 20.1259 46.8006 20.1194C46.815 20.1128 46.8293 20.106 46.8435 20.0991C46.8579 20.0921 46.8722 20.085 46.8864 20.0778C46.9008 20.0705 46.9151 20.0631 46.9293 20.0555C46.9437 20.0478 46.9581 20.04 46.9722 20.0321C46.9867 20.024 47.0009 20.0158 47.0151 20.0075C47.0295 19.999 47.0439 19.9904 47.058 19.9817C47.0725 19.9728 47.0867 19.9638 47.1009 19.9546C47.1154 19.9453 47.1297 19.9357 47.1438 19.9261C47.1583 19.9163 47.1726 19.9063 47.1867 19.8962C47.2012 19.8858 47.2155 19.8753 47.2296 19.8647C47.2441 19.8538 47.2584 19.8428 47.2725 19.8316C47.287 19.82 47.3013 19.8085 47.3154 19.7967C47.3299 19.7845 47.3442 19.7722 47.3583 19.7597C47.3729 19.7468 47.3871 19.7337 47.4012 19.7205C47.4157 19.7069 47.4301 19.6931 47.4441 19.6792C47.4587 19.6647 47.473 19.6501 47.487 19.6353C47.5016 19.6199 47.5159 19.6043 47.5299 19.5885C47.5445 19.572 47.5588 19.5553 47.5728 19.5385C47.5874 19.5208 47.6018 19.503 47.6157 19.4849C47.6304 19.4658 47.6447 19.4465 47.6586 19.427C47.6733 19.4063 47.6876 19.3853 47.7015 19.3641C47.7163 19.3415 47.7306 19.3187 47.7444 19.2956C47.7593 19.2705 47.7736 19.2451 47.7873 19.2195C47.8023 19.1913 47.8166 19.1627 47.8302 19.1339C47.8454 19.1014 47.8597 19.0684 47.8731 19.0352C47.8887 18.9964 47.903 18.9571 47.916 18.9173C47.9323 18.8673 47.9467 18.8164 47.9589 18.7649C47.9787 18.6813 47.993 18.596 48.0018 18.5092C48.0088 18.4408 48.0124 18.3714 48.0124 18.3013C48.0124 18.2273 48.0088 18.1552 48.0018 18.0848C47.993 17.9949 47.9786 17.9081 47.9589 17.8242C47.9466 17.7718 47.9323 17.7207 47.916 17.6707C47.9029 17.6308 47.8886 17.5916 47.8731 17.5532C47.8597 17.5201 47.8454 17.4876 47.8302 17.4557C47.8166 17.4272 47.8023 17.3992 47.7873 17.3717C47.7736 17.3465 47.7593 17.3216 47.7444 17.2972C47.7306 17.2745 47.7163 17.2521 47.7015 17.23C47.6876 17.2094 47.6733 17.1891 47.6586 17.169C47.6447 17.1501 47.6304 17.1314 47.6157 17.113C47.6017 17.0954 47.5875 17.0779 47.5728 17.0608C47.5588 17.0445 47.5445 17.0286 47.5299 17.0127C47.5159 16.9975 47.5016 16.9824 47.487 16.9676C47.473 16.9533 47.4587 16.9392 47.4441 16.9253C47.43 16.9118 47.4157 16.8985 47.4012 16.8854C47.3871 16.8727 47.3728 16.8601 47.3583 16.8477C47.3442 16.8357 47.3299 16.8238 47.3154 16.8122C47.3013 16.8008 47.287 16.7895 47.2725 16.7785C47.2584 16.7677 47.2441 16.757 47.2296 16.7466C47.2155 16.7363 47.2012 16.7262 47.1867 16.7162C47.1725 16.7065 47.1583 16.6969 47.1438 16.6874C47.1297 16.6781 47.1153 16.669 47.1009 16.66C47.0867 16.6511 47.0724 16.6424 47.058 16.6338C47.0438 16.6254 47.0295 16.6171 47.0151 16.6089C47.0009 16.6009 46.9867 16.5929 46.9722 16.5851C46.958 16.5774 46.9437 16.5699 46.9293 16.5625C46.9151 16.5551 46.9008 16.5479 46.8864 16.5408C46.8722 16.5338 46.8579 16.5268 46.8435 16.52C46.8293 16.5133 46.815 16.5067 46.8006 16.5003C46.7864 16.4939 46.7721 16.4878 46.7577 16.4816C46.7435 16.4755 46.7292 16.4695 46.7148 16.4636C46.7006 16.4578 46.6863 16.4521 46.6719 16.4465C46.6577 16.4409 46.6434 16.4354 46.629 16.4301C46.6148 16.4248 46.6005 16.4196 46.5861 16.4145C46.5719 16.4094 46.5576 16.4045 46.5432 16.3997C46.529 16.3949 46.5147 16.3902 46.5003 16.3856C46.4861 16.381 46.4718 16.3765 46.4574 16.3721C46.4431 16.3677 46.4289 16.3634 46.4145 16.3592C46.4003 16.3551 46.386 16.3511 46.3716 16.3472C46.3574 16.3432 46.3431 16.3394 46.3287 16.3357L46.2858 16.3247C46.2715 16.3212 46.2573 16.3177 46.2429 16.3143C46.2287 16.311 46.2144 16.3078 46.2 16.3046L46.1571 16.2954C46.1428 16.2925 46.1286 16.2895 46.1142 16.2867C46.1 16.2839 46.0856 16.2813 46.0713 16.2787L46.0284 16.2711C46.0142 16.2687 45.9999 16.2662 45.9855 16.2639L45.9426 16.2574L45.8997 16.2513L45.8568 16.2455L45.8139 16.2404L45.771 16.2358L45.7281 16.2315L45.6852 16.2277L45.6423 16.2243L45.5994 16.2213L45.5565 16.2188L45.5395 16.2178L45.5136 16.2162L45.4707 16.2137L45.4278 16.2113L45.3849 16.209L45.342 16.207L45.2991 16.2051L45.2562 16.2035L45.2133 16.2022L45.1704 16.2012L45.1275 16.2007L45.1038 16.2006H45.0846H45.0417H44.9988H44.9559H44.913H44.8701H44.8272H44.7843H44.7414H44.6985H44.6556H44.6127H44.5698H44.5269H44.484H44.4411H44.3982H44.3553H44.3124H44.2695H44.2266H44.1837H44.1408H44.0979H44.055H44.0121H43.9692H43.9263H43.8834H43.8405H43.7976H43.7547H43.7118H43.6689H43.626H43.5831H43.5402H43.4973H43.4544H43.4115H43.3686H43.3257H43.2828H43.2399H43.197H43.1541H43.1112H43.0683H43.0254H42.9825H42.9396H42.8967H42.8538H42.8109H42.768H42.7251H42.6822H42.6393H42.5964H42.5535H42.5106H42.4677H42.4248H42.3819H42.339H42.2961H42.2532H42.2103H42.1674H42.1245H42.0816H42.0387H41.9958H41.9529H41.91H41.8671H41.8242H41.7813H41.7384H41.6955H41.6526H41.6097H41.5668H41.5239H41.481H41.4381H41.3952H41.3523H41.3094H41.2665H41.2236H41.1807H41.1378H41.0949H41.052H41.0091H40.9662H40.9233H40.8804H40.8375H40.7946H40.7517H40.7088H40.6659H40.623H40.5801H40.5372H40.4943H40.4514H40.4085H40.3656H40.3227H40.2798H40.2369H40.194H40.1511H40.1082H40.0653H40.0224H39.9795H39.9366H39.8937H39.8508H39.8079H39.765H39.7221H39.6792H39.6363H39.5934H39.5505H39.5076H39.4647H39.4218H39.3789H39.336H39.2931H39.2502H39.2073H39.1644H39.1215H39.0786H39.0357H38.9928H38.9499H38.907H38.8145V11.5575C38.8145 11.2451 38.8464 10.9403 38.907 10.646C38.92 10.583 38.9344 10.5205 38.9499 10.4585C38.9633 10.4054 38.9776 10.3528 38.9928 10.3005C39.0064 10.2539 39.0207 10.2075 39.0357 10.1615C39.0494 10.1194 39.0637 10.0776 39.0786 10.0361C39.0924 9.99758 39.1067 9.95931 39.1215 9.92132C39.1354 9.88584 39.1497 9.85054 39.1644 9.81552C39.1784 9.78247 39.1926 9.74956 39.2073 9.71691C39.2213 9.6859 39.2356 9.6551 39.2502 9.62448C39.2642 9.59526 39.2785 9.56625 39.2931 9.53739C39.3071 9.50963 39.3215 9.48209 39.336 9.45466C39.35 9.42822 39.3644 9.40197 39.3789 9.37586C39.393 9.35053 39.4073 9.32542 39.4218 9.30042C39.4359 9.27617 39.4502 9.25203 39.4647 9.2281C39.4788 9.20489 39.4931 9.18185 39.5076 9.15892C39.5217 9.13671 39.5361 9.11471 39.5505 9.09279C39.5647 9.07133 39.5789 9.04994 39.5934 9.02873C39.6076 9.00795 39.6218 8.98716 39.6363 8.96663C39.6504 8.94675 39.6648 8.92711 39.6792 8.90747C39.6933 8.88816 39.7077 8.86899 39.7221 8.84992C39.7364 8.83114 39.7505 8.81229 39.765 8.79376C39.7791 8.77574 39.7936 8.758 39.8079 8.74018C39.8221 8.72262 39.8364 8.7052 39.8508 8.68789C39.865 8.67079 39.8793 8.6537 39.8937 8.63681C39.9078 8.62036 39.9222 8.60419 39.9366 8.58795C39.9509 8.57186 39.9651 8.55573 39.9795 8.53985C39.9937 8.52429 40.008 8.50887 40.0224 8.49349C40.0366 8.47832 40.0509 8.46327 40.0653 8.44828C40.0795 8.43351 40.0938 8.41873 40.1082 8.40414C40.1224 8.3898 40.1368 8.37567 40.1511 8.36154C40.1654 8.34748 40.1795 8.33328 40.194 8.31944C40.2081 8.30589 40.2226 8.29265 40.2369 8.27927C40.2512 8.26597 40.2654 8.25263 40.2798 8.2395C40.294 8.22659 40.3084 8.21393 40.3227 8.20123C40.337 8.1886 40.3512 8.17598 40.3656 8.16353C40.3799 8.15126 40.3941 8.13917 40.4085 8.12708C40.4228 8.1151 40.437 8.10315 40.4514 8.09135C40.4656 8.07965 40.4799 8.0681 40.4943 8.05662L40.5372 8.02267L40.5801 7.98962C40.5944 7.97878 40.6087 7.96802 40.623 7.95736C40.6372 7.94681 40.6515 7.93629 40.6659 7.92588L40.7088 7.89523C40.723 7.88518 40.7373 7.8752 40.7517 7.86533L40.7946 7.83611L40.8375 7.80767C40.8518 7.79833 40.866 7.78903 40.8804 7.77988L40.9233 7.75291C40.9376 7.744 40.9518 7.7351 40.9662 7.72637C40.9804 7.71771 40.9948 7.70931 41.0091 7.70083C41.0234 7.69235 41.0376 7.6838 41.052 7.67551C41.0662 7.66731 41.0806 7.65941 41.0949 7.65136C41.1092 7.64331 41.1234 7.63512 41.1378 7.62725C41.152 7.61949 41.1664 7.61198 41.1807 7.60436C41.195 7.59674 41.2092 7.58909 41.2236 7.58161C41.2378 7.57421 41.2522 7.56702 41.2665 7.5598C41.2808 7.55261 41.2951 7.54538 41.3094 7.53833L41.3523 7.51748C41.3666 7.51065 41.3809 7.504 41.3952 7.49731C41.4095 7.49066 41.4237 7.4839 41.4381 7.47739C41.4523 7.47095 41.4667 7.46479 41.481 7.4585C41.4953 7.4522 41.5095 7.4458 41.5239 7.43965C41.5381 7.43357 41.5525 7.42777 41.5668 7.42184C41.5811 7.41594 41.5953 7.40996 41.6097 7.4042L41.6526 7.38721L41.6955 7.3708C41.7098 7.36536 41.7241 7.35985 41.7384 7.35459C41.7526 7.34937 41.767 7.34447 41.7813 7.33939C41.7956 7.33431 41.8098 7.32913 41.8242 7.32419C41.8384 7.31929 41.8528 7.31468 41.8671 7.30992L41.91 7.29593C41.9243 7.29135 41.9386 7.28674 41.9529 7.28231C41.9671 7.27791 41.9815 7.27376 41.9958 7.2695C42.0101 7.26521 42.0244 7.26077 42.0387 7.25666C42.0529 7.25258 42.0673 7.24879 42.0816 7.24486C42.0959 7.24092 42.1102 7.23695 42.1245 7.23316L42.1674 7.222C42.1817 7.21839 42.196 7.21495 42.2103 7.21148C42.2246 7.20801 42.2388 7.20429 42.2532 7.20097C42.2674 7.19768 42.2818 7.19467 42.2961 7.19149L42.339 7.18208L42.3819 7.17318C42.3961 7.17031 42.4105 7.16763 42.4248 7.16491C42.4391 7.16216 42.4533 7.15923 42.4677 7.15662C42.482 7.154 42.4963 7.15179 42.5106 7.14935L42.5535 7.1422C42.5678 7.13991 42.5821 7.13755 42.5964 7.1354C42.6107 7.13326 42.625 7.13136 42.6393 7.12936C42.6536 7.12736 42.6679 7.12518 42.6822 7.12332C42.6965 7.12146 42.7108 7.11981 42.7251 7.11809L42.768 7.11316C42.7823 7.11158 42.7966 7.10983 42.8109 7.1084C42.8252 7.10697 42.8395 7.10586 42.8538 7.10457L42.8967 7.10075L42.9396 7.09749C42.9539 7.09645 42.9682 7.09563 42.9825 7.09474C42.9968 7.09388 43.011 7.09277 43.0254 7.09202C43.0397 7.09127 43.054 7.09084 43.0683 7.09023L43.1112 7.08862C43.1255 7.08816 43.1398 7.08755 43.1541 7.08723C43.1684 7.0869 43.1827 7.08687 43.197 7.08665C43.2113 7.08644 43.2256 7.08619 43.2399 7.08612L43.2507 7.08597H43.2828H43.3257H43.3686H43.4115H43.4544H43.4973H43.5402H43.5831H43.626H43.6689H43.7118H43.7547H43.7976H43.8405H43.8834H43.9263H43.9692H44.0121H44.055H44.0979H44.1408H44.1837H44.2266H44.2695H44.3124H44.3553H44.3982H44.4411H44.484H44.5269H44.5698H44.6127H44.6556H44.6985H44.7414H44.7843H44.8272H44.8701H44.913H44.9559H44.9988H45.0417H45.0846H45.1275H45.1704H45.2133H45.2562H45.2991H45.342H45.3849H45.4278H45.4707H45.5136H45.5565H45.5994H45.6423H45.6852H45.7281H45.771H45.8139H45.8568H45.8997H45.9426H45.9855H46.0284H46.0713H46.1142H46.1571H46.2H46.2429H46.2858H46.3287H46.3716H46.4145H46.4574H46.5003H46.5432H46.5861H46.629H46.6719H46.7148H46.7577H46.8006H46.8435H46.8864H46.9293H46.9722H47.0151H47.058H47.1009H47.1438H47.1867H47.2296H47.2725H47.3154H47.3583H47.4012H47.4441H47.487H47.5299H47.5728H47.6157H47.6586H47.7015H47.7444H47.7873H47.8302H47.8731H47.916H47.9589H48.0018H48.0447H48.0876H48.1305H48.1734H48.2163H48.2592H48.3021H48.345H48.3879H48.4308H48.4737H48.5166H48.5595H48.6024H48.6453H48.6882H48.7311H48.774H48.8169H48.8598H48.9027H48.9456H48.9885H49.0314H49.0743H49.1172H49.1601H49.203H49.2459H49.2888H49.3317H49.3746H49.4175H49.4604H49.5033H49.5462H49.5891H49.632H49.6749H49.7178H49.7607V7.08594V7.08594Z" fill="url(#paint0_linear)"/>
<path fill-rule="evenodd" clip-rule="evenodd" d="M14.3137 22.6441C14.283 22.6295 14.2523 22.6147 14.2217 22.5998V11.5574C14.2217 11.246 14.2534 10.9419 14.3137 10.6484C14.3266 10.5854 14.341 10.5229 14.3565 10.4609C14.3698 10.4078 14.3841 10.3551 14.3993 10.3028C14.4129 10.2562 14.4272 10.2099 14.4421 10.1639C14.4559 10.1218 14.47 10.0798 14.485 10.0383C14.4988 9.99983 14.513 9.9616 14.5278 9.92365C14.5416 9.88817 14.5559 9.85279 14.5706 9.81774C14.5845 9.78469 14.5988 9.75185 14.6134 9.71923C14.6274 9.68822 14.6417 9.65746 14.6562 9.62684C14.6702 9.59758 14.6846 9.56854 14.6991 9.53964C14.7131 9.51188 14.7274 9.48434 14.7419 9.45694C14.7559 9.43051 14.7702 9.40426 14.7847 9.37815C14.7988 9.35286 14.813 9.32771 14.8276 9.30275C14.8416 9.2785 14.8558 9.25432 14.8704 9.23035C14.8844 9.20717 14.8987 9.18418 14.9132 9.16128C14.9272 9.13911 14.9416 9.11707 14.956 9.09515C14.9701 9.07369 14.9844 9.0523 14.9988 9.03109C15.0131 9.01027 15.0271 8.98949 15.0417 8.96892C15.0557 8.94907 15.0701 8.92947 15.0845 8.90983C15.0986 8.89052 15.1129 8.87135 15.1273 8.85228C15.1415 8.83354 15.1557 8.81465 15.1701 8.79613C15.1842 8.77813 15.1986 8.76043 15.213 8.74265C15.2271 8.72509 15.2414 8.7076 15.2558 8.69025C15.27 8.67319 15.2842 8.65616 15.2986 8.63932C15.3127 8.62283 15.3271 8.60663 15.3415 8.59035C15.3556 8.57422 15.3698 8.55812 15.3843 8.54224C15.3984 8.52668 15.4127 8.51134 15.4271 8.49599C15.4413 8.48079 15.4555 8.46573 15.4699 8.45075C15.4841 8.43597 15.4983 8.4212 15.5127 8.40661C15.5269 8.39227 15.5412 8.37814 15.5556 8.36401C15.5698 8.34995 15.5839 8.33579 15.5984 8.32195C15.6125 8.30839 15.6269 8.29516 15.6412 8.28178C15.6554 8.26844 15.6696 8.25506 15.684 8.24193C15.6982 8.22906 15.7126 8.21643 15.7268 8.20373C15.7411 8.19111 15.7553 8.17844 15.7697 8.166C15.7839 8.15373 15.7982 8.14167 15.8125 8.12958C15.8267 8.1176 15.8409 8.10562 15.8553 8.09382C15.8695 8.08216 15.8838 8.0706 15.8982 8.05908C15.9124 8.04767 15.9266 8.03637 15.941 8.02514C15.9552 8.01402 15.9695 8.00304 15.9838 7.99209C15.998 7.98125 16.0123 7.97045 16.0266 7.95979L16.0694 7.92839C16.0837 7.91805 16.0979 7.90778 16.1123 7.89763C16.1265 7.88758 16.1408 7.87763 16.1551 7.86776C16.1693 7.85792 16.1836 7.84816 16.1979 7.8385C16.2121 7.82895 16.2264 7.81954 16.2407 7.81014C16.255 7.8008 16.2692 7.79139 16.2835 7.7822C16.2977 7.77312 16.3121 7.76425 16.3264 7.7553C16.3407 7.7464 16.3548 7.73738 16.3692 7.72866C16.3834 7.72004 16.3977 7.71167 16.412 7.70319C16.4263 7.69471 16.4405 7.68609 16.4549 7.67776C16.469 7.66957 16.4834 7.66173 16.4977 7.65369C16.512 7.64564 16.5261 7.63748 16.5405 7.62958C16.5547 7.62178 16.569 7.61427 16.5833 7.60665C16.5976 7.59903 16.6118 7.59138 16.6261 7.5839C16.6404 7.5765 16.6546 7.56924 16.669 7.56198L16.7118 7.54059C16.726 7.53354 16.7403 7.5265 16.7546 7.51963C16.7689 7.5128 16.7831 7.50618 16.7974 7.49949C16.8117 7.4928 16.8259 7.48597 16.8403 7.47946C16.8544 7.47299 16.8688 7.46691 16.8831 7.46061C16.8974 7.45431 16.9116 7.44791 16.9259 7.44176C16.9401 7.43568 16.9545 7.42981 16.9688 7.42388L17.0116 7.40628L17.0544 7.38918L17.0972 7.3728C17.1115 7.36736 17.1257 7.36175 17.14 7.35645C17.1542 7.35123 17.1686 7.34637 17.1829 7.34129C17.1971 7.33621 17.2114 7.33106 17.2257 7.32612L17.2685 7.31171L17.3113 7.29772C17.3256 7.29314 17.3398 7.28846 17.3541 7.28402C17.3683 7.27962 17.3827 7.27544 17.397 7.27118C17.4112 7.26689 17.4255 7.26253 17.4398 7.25838C17.454 7.25426 17.4683 7.25044 17.4826 7.24647L17.5255 7.23477C17.5397 7.23098 17.5539 7.22711 17.5683 7.22347C17.5825 7.21982 17.5968 7.21649 17.6111 7.21299C17.6253 7.20948 17.6396 7.20583 17.6539 7.20247C17.6681 7.19914 17.6825 7.19603 17.6967 7.19285L17.7396 7.18348C17.7538 7.1804 17.7681 7.17729 17.7824 7.17439C17.7966 7.17153 17.8109 7.16888 17.8252 7.16613C17.8395 7.16338 17.8537 7.16051 17.868 7.1579C17.8823 7.15529 17.8966 7.15293 17.9108 7.15046L17.9537 7.14331C17.968 7.14102 17.9822 7.13855 17.9965 7.13637C18.0107 7.13419 18.0251 7.13236 18.0393 7.13033C18.0536 7.12832 18.0678 7.12618 18.0822 7.12428L18.125 7.11888L18.1678 7.11398C18.1821 7.11237 18.1963 7.11051 18.2106 7.10904C18.2248 7.10758 18.2392 7.1065 18.2534 7.10518L18.2963 7.10139C18.3105 7.10017 18.3248 7.09899 18.3391 7.09796C18.3533 7.09692 18.3676 7.0961 18.3819 7.0952C18.3962 7.09431 18.4104 7.09327 18.4247 7.09248C18.439 7.0917 18.4533 7.09116 18.4676 7.09052L18.5104 7.08887C18.5247 7.08837 18.5389 7.08762 18.5532 7.08726C18.5674 7.0869 18.5818 7.08694 18.596 7.08672C18.6103 7.08651 18.6246 7.08626 18.6389 7.08619L18.6579 7.08594H18.6817H18.7245H18.7673H18.8101H18.853H18.8958H18.9386H18.9814H19.0243H19.0671H19.1099H19.1528H19.1956H19.2384H19.2812H19.324H19.3669H19.4097H19.4525H19.4953H19.5381H19.581H19.6238H19.6666H19.7095H19.7523H19.7951H19.8379H19.8807H19.9236H19.9664H20.0092H20.052H20.0949H20.1377H20.1805H20.2233H20.2662H20.309H20.3518H20.3946H20.4374H20.4803H20.5231H20.5659H20.6087H20.6516H20.6944H20.7372H20.7801H20.8229H20.8657H20.9085H20.9513H20.9942H21.037H21.0798H21.1226H21.1654H21.2083H21.2511H21.2939H21.3368H21.3796H21.4224H21.4652H21.508H21.5509H21.5937H21.6365H21.6793H21.7222H21.765H21.8078H21.8506H21.8935H21.9363H21.9791H22.0219H22.0647H22.1076H22.1504H22.1932H22.236H22.2789H22.3217H22.3645H22.4073H22.4502H22.493H22.5358H22.5786H22.6215H22.6643H22.7071H22.7499H22.7927H22.8356H22.8784H22.9212H22.9641H23.0069H23.0497H23.0925H23.1353H23.1782H23.221H23.2638H23.3066H23.3494H23.3923H23.4351H23.4779H23.5208H23.5636H23.6064H23.6492H23.692H23.7349H23.7777H23.8205H23.8633H23.9062H23.949H23.9918H24.0347H24.0775H24.1203H24.1631H24.2059H24.2487H24.2916H24.3344H24.3772H24.42H24.4629H24.5057H24.5485H24.5914H24.6342H24.677H24.7198H24.7626H24.8055H24.8483H24.8911H24.9339H24.9768H25.0196H25.0624H25.1052H25.1481H25.1844V29.4418C25.1844 29.6363 25.172 29.8278 25.1481 30.0158C25.1365 30.1062 25.122 30.1958 25.1052 30.2845C25.0924 30.3519 25.0782 30.4189 25.0624 30.4852C25.0491 30.5412 25.0349 30.5967 25.0196 30.6518C25.0061 30.7001 24.9918 30.748 24.9768 30.7956C24.9631 30.8388 24.9488 30.8816 24.9339 30.9242C24.9202 30.9635 24.9059 31.0027 24.8911 31.0416C24.8773 31.0779 24.863 31.1139 24.8483 31.1498C24.8344 31.1835 24.8201 31.2171 24.8055 31.2504C24.7915 31.282 24.7772 31.3134 24.7626 31.3447C24.7487 31.3745 24.7344 31.4041 24.7198 31.4335C24.7058 31.4618 24.6916 31.4898 24.677 31.5177C24.663 31.5446 24.6487 31.5713 24.6342 31.5979C24.6201 31.6235 24.6059 31.6491 24.5914 31.6745C24.5773 31.6989 24.563 31.7233 24.5485 31.7474C24.5345 31.7708 24.5201 31.794 24.5057 31.8171C24.4916 31.8397 24.4773 31.8621 24.4629 31.8844C24.4487 31.9061 24.4346 31.9279 24.42 31.9494C24.406 31.9702 24.3916 31.9909 24.3772 32.0116C24.3632 32.0317 24.3488 32.0516 24.3344 32.0716C24.3202 32.0911 24.306 32.1106 24.2916 32.1299C24.2775 32.1488 24.2632 32.1676 24.2487 32.1862C24.2346 32.2044 24.2203 32.2224 24.2059 32.2404C24.1917 32.2582 24.1776 32.276 24.1631 32.2935C24.149 32.3106 24.1346 32.3276 24.1203 32.3445C24.1061 32.3612 24.0919 32.3777 24.0775 32.3941C24.0632 32.4104 24.0491 32.4267 24.0347 32.4427C24.0205 32.4584 24.0061 32.4737 23.9918 32.4892C23.9776 32.5046 23.9634 32.52 23.949 32.5351C23.9348 32.5499 23.9205 32.5646 23.9062 32.5792C23.892 32.5937 23.8777 32.6081 23.8633 32.6224C23.8492 32.6365 23.8349 32.6506 23.8205 32.6645C23.8063 32.6782 23.792 32.6917 23.7777 32.7052C23.7635 32.7187 23.7493 32.7321 23.7349 32.7453C23.7207 32.7583 23.7064 32.7711 23.692 32.7839C23.6778 32.7966 23.6637 32.8095 23.6492 32.8221C23.6351 32.8344 23.6207 32.8463 23.6064 32.8585C23.5922 32.8706 23.578 32.8829 23.5636 32.8948C23.5494 32.9065 23.5351 32.918 23.5208 32.9295C23.5065 32.9411 23.4923 32.9527 23.4779 32.964C23.4638 32.9752 23.4494 32.9861 23.4351 32.997C23.4208 33.008 23.4067 33.019 23.3923 33.0298C23.3781 33.0404 23.3637 33.0507 23.3494 33.0612C23.3352 33.0716 23.321 33.0821 23.3066 33.0924C23.2925 33.1025 23.2781 33.1124 23.2638 33.1223C23.2495 33.1322 23.2354 33.1423 23.221 33.152C23.2068 33.1616 23.1925 33.1709 23.1782 33.1804C23.1639 33.1898 23.1497 33.1995 23.1353 33.2088C23.1212 33.2179 23.1068 33.2266 23.0925 33.2356C23.0783 33.2446 23.0641 33.2537 23.0497 33.2625C23.0355 33.2712 23.0211 33.2796 23.0069 33.2882C22.9926 33.2967 22.9784 33.3053 22.9641 33.3136C22.9498 33.3219 22.9355 33.33 22.9212 33.3381C22.907 33.3462 22.8927 33.3543 22.8784 33.3622C22.8642 33.37 22.8499 33.3778 22.8356 33.3855L22.7927 33.4083C22.7785 33.4157 22.7643 33.4232 22.7499 33.4306C22.7357 33.4378 22.7214 33.4449 22.7071 33.452C22.6928 33.4591 22.6786 33.4664 22.6643 33.4733C22.6501 33.4802 22.6357 33.4867 22.6215 33.4934C22.6072 33.5002 22.593 33.507 22.5786 33.5136C22.5644 33.5201 22.5501 33.5263 22.5358 33.5327L22.493 33.5515L22.4502 33.5698C22.4359 33.5758 22.4216 33.5816 22.4073 33.5874C22.3931 33.5932 22.3788 33.5992 22.3645 33.6049C22.3503 33.6105 22.336 33.6157 22.3217 33.6212C22.3074 33.6267 22.2932 33.6322 22.2789 33.6376C22.2646 33.6429 22.2503 33.6479 22.236 33.6531L22.1932 33.6682L22.1504 33.683C22.1362 33.6878 22.1218 33.6924 22.1076 33.697C22.0933 33.7016 22.0791 33.7065 22.0647 33.711C22.0505 33.7154 22.0362 33.7196 22.0219 33.7239L21.9791 33.7367L21.9363 33.749C21.922 33.753 21.9078 33.7568 21.8935 33.7606C21.8792 33.7645 21.8649 33.7686 21.8506 33.7722C21.8364 33.7759 21.822 33.7792 21.8078 33.7828C21.7935 33.7863 21.7793 33.7899 21.765 33.7933L21.7222 33.8032L21.6793 33.8126C21.665 33.8157 21.6509 33.819 21.6365 33.822C21.6223 33.8249 21.6079 33.8274 21.5937 33.8302C21.5794 33.833 21.5652 33.8358 21.5509 33.8385L21.508 33.8462C21.4938 33.8488 21.4795 33.851 21.4652 33.8534C21.4509 33.8557 21.4367 33.8583 21.4224 33.8605C21.4082 33.8627 21.3939 33.8646 21.3796 33.8667L21.3368 33.8727C21.3225 33.8746 21.3082 33.8766 21.2939 33.8784C21.2797 33.8802 21.2654 33.8817 21.2511 33.8833C21.2368 33.885 21.2226 33.8868 21.2083 33.8883C21.194 33.8898 21.1797 33.8911 21.1654 33.8924L21.1226 33.8963C21.1083 33.8975 21.0941 33.899 21.0798 33.9C21.0656 33.9011 21.0512 33.9018 21.037 33.9028L20.9942 33.9055L20.9513 33.9078C20.9371 33.9085 20.9228 33.9089 20.9085 33.9094C20.8942 33.91 20.88 33.9106 20.8657 33.9111C20.8515 33.9115 20.8371 33.9116 20.8229 33.9119L20.7801 33.9124C20.7668 33.9125 20.7536 33.9129 20.7403 33.9129H20.7372H20.6944H20.6516H20.6087H20.5659H20.5231H20.4803H20.4374H20.3946H20.3518H20.309H20.2662H20.2233H20.1805H20.1377H20.0949H20.052H20.0092H19.9664H19.9236H19.8807H19.8379H19.7951H19.7523H19.7095H19.6666H19.6238H19.581H19.5381H19.4953H19.4525H19.4097H19.3669H19.324H19.2812H19.2384H19.1956H19.1528H19.1099H19.0671H19.0243H18.9814H18.9386H18.8958H18.853H18.8101H18.7673H18.7245H18.6817H18.6389H18.596H18.5532H18.5104H18.4676H18.4247H18.3819H18.3391H18.2963H18.2534H18.2106H18.1678H18.125H18.0822H18.0393H17.9965H17.9537H17.9108H17.868H17.8252H17.7824H17.7396H17.6967H17.6539H17.6111H17.5683H17.5255H17.4826H17.4398H17.397H17.3541H17.3113H17.2685H17.2257H17.1829H17.14H17.0972H17.0544H17.0116H16.9688H16.9259H16.8831H16.8403H16.7974H16.7546H16.7118H16.669H16.6261H16.5833H16.5405H16.4977H16.4549H16.412H16.3692H16.3264H16.2835H16.2407H16.1979H16.1551H16.1123H16.0694H16.0266H15.9838H15.941H15.8982H15.8553H15.8125H15.7697H15.7268H15.684H15.6412H15.5984H15.5556H15.5127H15.4699H15.4271H15.3843H15.3415H15.2986H15.2558H15.213H15.1701H15.1273H15.0845H15.0417H14.9988H14.956H14.9132H14.8704H14.8276H14.7847H14.7419H14.6991H14.6562H14.6134H14.5706H14.5278H14.485H14.4421H14.3993H14.3565H14.3137H14.2217V24.4902C14.2217 24.4902 14.2533 24.4989 14.3137 24.5142L14.3565 24.525L14.3993 24.5355L14.4421 24.5459L14.485 24.5561L14.5278 24.5661L14.5706 24.5759L14.6134 24.5857L14.6562 24.5953L14.6991 24.6047L14.7419 24.614L14.7847 24.6232L14.8276 24.6323L14.8704 24.6413L14.9132 24.6501L14.956 24.6588L14.9988 24.6674L15.0417 24.6759L15.0845 24.6843L15.1273 24.6927L15.1701 24.7008L15.213 24.7089L15.2558 24.7169L15.2986 24.7247L15.3415 24.7325L15.3843 24.7402L15.4271 24.7477L15.4699 24.7552L15.5127 24.7625L15.5556 24.7698L15.5984 24.777L15.6412 24.784L15.684 24.791L15.7268 24.7979L15.7697 24.8047L15.8125 24.8114L15.8553 24.818L15.8982 24.8245L15.941 24.8309L15.9838 24.8372L16.0266 24.8434L16.0694 24.8495L16.1123 24.8555L16.1551 24.8614L16.1979 24.8673L16.2407 24.873L16.2835 24.8787L16.3264 24.8843L16.3692 24.8897L16.412 24.8951L16.4549 24.9004L16.4977 24.9056L16.5405 24.9106L16.5833 24.9157L16.6261 24.9205L16.669 24.9254L16.7118 24.9301L16.7546 24.9347L16.7974 24.9393L16.8403 24.9437L16.8831 24.9481L16.9259 24.9523L16.9688 24.9565L17.0116 24.9606L17.0544 24.9646L17.0972 24.9685L17.14 24.9723L17.1829 24.976L17.2257 24.9796L17.2685 24.9831L17.3113 24.9866L17.3541 24.9898L17.397 24.9931L17.4398 24.9962L17.4826 24.9993L17.5255 25.0023L17.5683 25.0051L17.6111 25.0078L17.6539 25.0105L17.6967 25.0131L17.7396 25.0156L17.7824 25.0179L17.8252 25.0202L17.868 25.0224L17.9108 25.0245L17.9537 25.0265L17.9965 25.0284L18.0393 25.0302L18.0822 25.0319L18.125 25.0335L18.1678 25.035L18.2106 25.0364L18.2534 25.0377L18.2963 25.039L18.3391 25.04L18.3819 25.041L18.4247 25.042L18.4676 25.0427L18.5104 25.0434L18.5532 25.0441L18.596 25.0445L18.6389 25.045L18.6817 25.0453L18.7245 25.0454L18.7673 25.0455L18.7839 25.0456L18.8101 25.0455L18.853 25.0452L18.8958 25.0449L18.9386 25.0447L18.9814 25.0444L19.0243 25.0436L19.0671 25.0429L19.1099 25.0421L19.1528 25.0413L19.1956 25.0402L19.2384 25.0389L19.2812 25.0375L19.324 25.0362L19.3669 25.0348L19.4097 25.0329L19.4525 25.031L19.4953 25.0291L19.5381 25.0272L19.581 25.0248L19.6238 25.0223L19.6666 25.0198L19.7095 25.0173L19.7523 25.0144L19.7951 25.0113L19.8379 25.0082L19.8807 25.0051L19.9236 25.0017L19.9664 24.998L20.0092 24.9942L20.052 24.9905L20.0949 24.9865L20.1377 24.9821L20.1805 24.9777L20.2233 24.9733L20.2662 24.9685L20.309 24.9635L20.3518 24.9584L20.3946 24.9533L20.4374 24.9477L20.4803 24.942L20.5231 24.9362L20.5659 24.9303C20.5804 24.9283 20.5944 24.926 20.6087 24.9239L20.6516 24.9174L20.6944 24.9109L20.7372 24.904C20.7516 24.9017 20.7657 24.8992 20.7801 24.8968L20.8229 24.8896C20.837 24.8871 20.8516 24.8848 20.8657 24.8823C20.8801 24.8797 20.8942 24.877 20.9085 24.8743L20.9513 24.8663L20.9942 24.8582L21.037 24.8498C21.0514 24.8469 21.0655 24.8438 21.0798 24.8409L21.1226 24.832L21.1654 24.823C21.1799 24.8199 21.1939 24.8166 21.2083 24.8133L21.2511 24.8036C21.2653 24.8003 21.2798 24.7972 21.2939 24.7939C21.3084 24.7905 21.3224 24.7869 21.3368 24.7834L21.3796 24.7728C21.3938 24.7692 21.4083 24.7658 21.4224 24.7622C21.4368 24.7585 21.451 24.7546 21.4652 24.7509L21.508 24.7394C21.5223 24.7355 21.5368 24.7317 21.5509 24.7278C21.5653 24.7238 21.5794 24.7197 21.5937 24.7156L21.6365 24.7031C21.6508 24.6989 21.6652 24.6949 21.6793 24.6906L21.7222 24.6774L21.765 24.6639C21.7792 24.6594 21.7937 24.655 21.8078 24.6504L21.8506 24.636L21.8935 24.6214C21.9077 24.6165 21.9222 24.6118 21.9363 24.6068C21.9507 24.6017 21.9648 24.5964 21.9791 24.5912L22.0219 24.5755C22.0362 24.5702 22.0506 24.565 22.0647 24.5596C22.0792 24.554 22.0933 24.5483 22.1076 24.5427C22.1219 24.5371 22.1363 24.5315 22.1504 24.5258L22.1932 24.5083L22.236 24.4902C22.2503 24.4842 22.2648 24.4783 22.2789 24.4721C22.2934 24.4658 22.3074 24.4592 22.3217 24.4528L22.3645 24.4334L22.4073 24.4134C22.4217 24.4065 22.4359 24.3996 22.4502 24.3926C22.4644 24.3857 22.4789 24.3788 22.493 24.3718C22.5075 24.3645 22.5215 24.357 22.5358 24.3496C22.5501 24.3422 22.5645 24.3349 22.5786 24.3275C22.5931 24.3198 22.6072 24.312 22.6215 24.3042C22.6358 24.2963 22.6501 24.2885 22.6643 24.2805C22.6787 24.2724 22.6929 24.2643 22.7071 24.2561C22.7215 24.2478 22.7357 24.2393 22.7499 24.2308C22.7643 24.2223 22.7786 24.2137 22.7927 24.2051C22.8072 24.1962 22.8214 24.1871 22.8356 24.1781C22.8499 24.1691 22.8643 24.16 22.8784 24.1508C22.8929 24.1414 22.907 24.1317 22.9212 24.1221C22.9355 24.1124 22.95 24.1028 22.9641 24.093C22.9786 24.0829 22.9926 24.0727 23.0069 24.0625C23.0212 24.0521 23.0356 24.0418 23.0497 24.0314C23.0642 24.0206 23.0783 24.0097 23.0925 23.9988C23.1069 23.9877 23.1213 23.9766 23.1353 23.9654C23.1498 23.9539 23.164 23.9423 23.1782 23.9306C23.1926 23.9187 23.2069 23.9067 23.221 23.8946C23.2354 23.8823 23.2498 23.8701 23.2638 23.8576C23.2784 23.8447 23.2925 23.8316 23.3066 23.8185C23.321 23.8053 23.3354 23.7921 23.3494 23.7787C23.364 23.7648 23.3782 23.7507 23.3923 23.7366C23.4068 23.7222 23.421 23.7076 23.4351 23.693C23.4495 23.678 23.4639 23.6631 23.4779 23.648C23.4925 23.6321 23.5066 23.6161 23.5208 23.6C23.5353 23.5835 23.5495 23.5669 23.5636 23.5502C23.578 23.533 23.5924 23.5158 23.6064 23.4983C23.6209 23.4802 23.6353 23.462 23.6492 23.4437C23.6638 23.4245 23.678 23.4051 23.692 23.3856C23.7066 23.3654 23.7209 23.345 23.7349 23.3245C23.7495 23.3031 23.7637 23.2815 23.7777 23.2598C23.7923 23.2371 23.8066 23.2141 23.8205 23.191C23.8351 23.1666 23.8495 23.1421 23.8633 23.1174C23.8781 23.0912 23.8923 23.0648 23.9062 23.0382C23.9209 23.0097 23.9352 22.981 23.949 22.9522C23.9639 22.9211 23.9781 22.8898 23.9918 22.8583C24.0067 22.824 24.021 22.7895 24.0347 22.7547C24.0497 22.7163 24.064 22.6776 24.0775 22.6386C24.0928 22.5943 24.1069 22.5496 24.1203 22.5045C24.1358 22.4518 24.1501 22.3985 24.1631 22.3448C24.1793 22.278 24.1936 22.2106 24.2059 22.1424C24.2243 22.0408 24.2384 21.9377 24.2487 21.8332C24.2631 21.6874 24.2701 21.539 24.2701 21.3883V16.2006H24.2487H24.2059H24.1631H24.1203H24.0775H24.0347H23.9918H23.949H23.9062H23.8633H23.8205H23.7777H23.7349H23.692H23.6492H23.6064H23.5636H23.5208H23.4779H23.4351H23.3923H23.3494H23.3066H23.2638H23.221H23.1782H23.1353H23.0925H23.0497H23.0069H22.9641H22.9212H22.8784H22.8356H22.7927H22.7499H22.7071H22.6643H22.6215H22.5786H22.5358H22.493H22.4502H22.4073H22.3645H22.3217H22.2789H22.236H22.1932H22.1504H22.1076H22.0647H22.0219H21.9791H21.9363H21.8935H21.8506H21.8078H21.765H21.7222H21.6793H21.6365H21.5937H21.5509H21.508H21.4652H21.4224H21.3796H21.3368H21.2939H21.2511H21.2083H21.1654H21.1226H21.0798H21.037H20.9942H20.9513H20.9085H20.8657H20.8229H20.7801H20.7372H20.6944H20.6516H20.6087H20.5659H20.5231H20.4803H20.4478V21.3883C20.4478 21.4695 20.4443 21.5494 20.4374 21.6278C20.4287 21.7276 20.4144 21.825 20.3946 21.9196C20.3824 21.9781 20.3681 22.0354 20.3518 22.0917C20.3388 22.1366 20.3246 22.1807 20.309 22.2241C20.2957 22.2611 20.2813 22.2974 20.2662 22.3332C20.2526 22.3652 20.2384 22.3967 20.2233 22.4277C20.2096 22.456 20.1954 22.4839 20.1805 22.5114C20.1668 22.5366 20.1524 22.5614 20.1377 22.5859C20.1239 22.609 20.1096 22.6318 20.0949 22.6542C20.081 22.6752 20.0667 22.696 20.052 22.7164C20.0381 22.7359 20.0239 22.7553 20.0092 22.7743C19.9953 22.7923 19.981 22.81 19.9664 22.8275C19.9524 22.8443 19.9382 22.8608 19.9236 22.8771C19.9096 22.8929 19.8953 22.9084 19.8807 22.9237C19.8667 22.9384 19.8525 22.953 19.8379 22.9674C19.8239 22.9812 19.8096 22.9949 19.7951 23.0084C19.7811 23.0214 19.7667 23.0342 19.7523 23.0468C19.7382 23.0591 19.7239 23.0712 19.7095 23.0832C19.6954 23.0947 19.681 23.1061 19.6666 23.1174C19.6525 23.1284 19.6382 23.1392 19.6238 23.1498C19.6097 23.1602 19.5954 23.1704 19.581 23.1805C19.5669 23.1903 19.5526 23.2 19.5381 23.2095C19.524 23.2188 19.5098 23.228 19.4953 23.237C19.4812 23.2458 19.4669 23.2544 19.4525 23.263C19.4384 23.2713 19.4241 23.2794 19.4097 23.2875C19.3956 23.2954 19.3813 23.3031 19.3669 23.3108C19.3527 23.3183 19.3385 23.3256 19.324 23.3328C19.3099 23.3399 19.2956 23.3469 19.2812 23.3538C19.267 23.3605 19.2528 23.3672 19.2384 23.3737C19.2242 23.38 19.21 23.3863 19.1956 23.3924C19.1814 23.3984 19.1671 23.4042 19.1528 23.41C19.1386 23.4157 19.1243 23.4212 19.1099 23.4267C19.0957 23.432 19.0815 23.4373 19.0671 23.4424C19.0529 23.4475 19.0387 23.4526 19.0243 23.4574C19.0101 23.4622 18.9958 23.4668 18.9814 23.4713C18.9673 23.4758 18.953 23.4801 18.9386 23.4844C18.9244 23.4886 18.9102 23.4927 18.8958 23.4967C18.8816 23.5006 18.8673 23.5046 18.853 23.5083C18.8388 23.512 18.8245 23.5156 18.8101 23.519C18.796 23.5225 18.7817 23.5257 18.7673 23.529C18.7531 23.5322 18.7389 23.5353 18.7245 23.5383C18.7103 23.5413 18.6961 23.5442 18.6817 23.5469C18.6675 23.5496 18.6532 23.5522 18.6389 23.5547C18.6246 23.5572 18.6104 23.5597 18.596 23.5621L18.5532 23.5686C18.539 23.5707 18.5247 23.5726 18.5104 23.5745C18.4962 23.5764 18.482 23.5783 18.4676 23.5799L18.4247 23.5847C18.4106 23.5862 18.3963 23.5875 18.3819 23.5888C18.3677 23.5901 18.3535 23.5914 18.3391 23.5925C18.3249 23.5936 18.3106 23.5946 18.2963 23.5955C18.2821 23.5965 18.2678 23.5972 18.2534 23.598C18.2392 23.5988 18.225 23.5995 18.2106 23.6001C18.1964 23.6006 18.1821 23.601 18.1678 23.6014L18.125 23.6024C18.1108 23.6026 18.0965 23.6027 18.0822 23.6028L18.0661 23.603L18.0393 23.6029L17.9965 23.6026L17.9537 23.602L17.9108 23.6011L17.868 23.5999L17.8252 23.5985L17.7824 23.5968L17.7396 23.5948L17.6967 23.5926L17.6539 23.59L17.6111 23.5872L17.5683 23.5842L17.5255 23.5808L17.4826 23.5772L17.4398 23.5734L17.397 23.5692L17.3541 23.5648L17.3113 23.5602L17.2685 23.5553L17.2257 23.55L17.1829 23.5446L17.14 23.5389L17.0972 23.5329L17.0544 23.5266L17.0116 23.5202L16.9688 23.5135L16.9259 23.5065L16.8831 23.4992L16.8403 23.4918L16.7974 23.484L16.7546 23.476L16.7118 23.4678L16.669 23.4593L16.6261 23.4505L16.5833 23.4415L16.5405 23.4324L16.4977 23.4229L16.4549 23.4131L16.412 23.4032L16.3692 23.393L16.3264 23.3826L16.2835 23.3719L16.2407 23.3611L16.1979 23.3499L16.1551 23.3385L16.1123 23.3269L16.0694 23.3151L16.0266 23.3031L15.9838 23.2907L15.941 23.2783L15.8982 23.2655L15.8553 23.2525L15.8125 23.2393L15.7697 23.2259L15.7268 23.2122L15.684 23.1984L15.6412 23.1843L15.5984 23.17L15.5556 23.1554L15.5127 23.1407L15.4699 23.1258L15.4271 23.1105L15.3843 23.0951L15.3415 23.0796L15.2986 23.0637L15.2558 23.0477L15.213 23.0315L15.1701 23.015L15.1273 22.9984L15.0845 22.9815L15.0417 22.9645L14.9988 22.9472L14.956 22.9297L14.9132 22.9121L14.8704 22.8942L14.8276 22.8761L14.7847 22.8578L14.7419 22.8394L14.6991 22.8208L14.6562 22.8018L14.6134 22.7828L14.5706 22.7636L14.5278 22.7442L14.485 22.7245L14.4421 22.7047L14.3993 22.6847L14.3565 22.6645L14.3137 22.6442V22.6441V22.6441Z" fill="url(#paint1_linear)"/>
<path fill-rule="evenodd" clip-rule="evenodd" d="M26.6105 17.3351C26.5793 17.3605 26.5486 17.3861 26.5186 17.4121V11.5584C26.5186 11.2471 26.5503 10.9433 26.6105 10.6499C26.6234 10.5869 26.6378 10.5245 26.6533 10.4625C26.6666 10.4093 26.681 10.3565 26.6962 10.3041C26.7097 10.2574 26.724 10.2111 26.739 10.1651C26.7527 10.123 26.7669 10.0811 26.7818 10.0397C26.7956 10.0012 26.8098 9.96293 26.8247 9.92498C26.8385 9.8895 26.8527 9.8542 26.8675 9.81915C26.8814 9.7861 26.8956 9.75326 26.9103 9.7206C26.9242 9.68959 26.9385 9.6588 26.9531 9.62818C26.9671 9.59892 26.9814 9.56995 26.9959 9.54105C27.0099 9.51329 27.0242 9.48575 27.0388 9.45831C27.0528 9.43188 27.0671 9.40563 27.0816 9.37952C27.0956 9.35423 27.1099 9.32905 27.1244 9.30408C27.1385 9.27983 27.1527 9.25569 27.1672 9.23172C27.1813 9.20858 27.1956 9.18558 27.2101 9.16273C27.2241 9.14048 27.2385 9.11848 27.2529 9.09652C27.267 9.07502 27.2812 9.05367 27.2957 9.03246C27.3099 9.01164 27.324 8.99082 27.3386 8.97029C27.3526 8.95041 27.367 8.93084 27.3814 8.91124C27.3955 8.89192 27.4098 8.87272 27.4242 8.85365C27.4384 8.83487 27.4525 8.81606 27.467 8.79753C27.4811 8.77954 27.4955 8.7618 27.5099 8.74402C27.524 8.72646 27.5383 8.70897 27.5527 8.69166C27.5669 8.67456 27.5811 8.65753 27.5955 8.64069C27.6096 8.62423 27.624 8.608 27.6383 8.59176C27.6525 8.57566 27.6667 8.55949 27.6812 8.54358C27.6953 8.52802 27.7096 8.51264 27.7239 8.49729C27.7381 8.48213 27.7524 8.46707 27.7668 8.45208C27.781 8.43731 27.7952 8.42254 27.8096 8.40794C27.8238 8.39364 27.8381 8.37951 27.8524 8.36538C27.8667 8.35132 27.8808 8.33716 27.8953 8.32328C27.9094 8.30972 27.9238 8.29649 27.9381 8.28311C27.9523 8.26977 27.9665 8.25639 27.9809 8.24327C27.9951 8.23039 28.0094 8.21773 28.0237 8.20503C28.0379 8.19237 28.0522 8.17974 28.0666 8.16729C28.0808 8.15503 28.095 8.14297 28.1094 8.13088C28.1236 8.1189 28.1379 8.10692 28.1522 8.09508C28.1664 8.08342 28.1807 8.07186 28.195 8.06038C28.2093 8.04897 28.2235 8.03763 28.2379 8.0264C28.2521 8.01532 28.2664 8.00433 28.2807 7.99339C28.2949 7.98255 28.3092 7.97175 28.3235 7.96109C28.3377 7.9505 28.352 7.94006 28.3663 7.92965C28.3806 7.91935 28.3948 7.90905 28.4091 7.89889C28.4234 7.88884 28.4377 7.87893 28.452 7.86902C28.4662 7.85919 28.4805 7.84939 28.4948 7.83973C28.509 7.83018 28.5233 7.82077 28.5376 7.81136C28.5519 7.80199 28.5661 7.79262 28.5805 7.78343C28.5947 7.77434 28.609 7.76547 28.6233 7.75653C28.6376 7.74763 28.6517 7.73861 28.6661 7.72988C28.6803 7.72123 28.6947 7.71286 28.709 7.70438C28.7233 7.6959 28.7374 7.68725 28.7518 7.67895C28.7659 7.67076 28.7804 7.66289 28.7946 7.65484C28.8089 7.64679 28.8231 7.63868 28.8374 7.63081C28.8516 7.62301 28.8659 7.6155 28.8802 7.60784C28.8945 7.60022 28.9087 7.59257 28.9231 7.58509L28.9659 7.56317L29.0087 7.54174C29.023 7.53473 29.0372 7.52765 29.0515 7.52078C29.0658 7.51395 29.0801 7.50733 29.0944 7.50065C29.1087 7.49399 29.1228 7.48713 29.1372 7.48062C29.1514 7.47414 29.1657 7.46806 29.18 7.46177C29.1943 7.45547 29.2085 7.44907 29.2229 7.44292C29.2371 7.43684 29.2514 7.43093 29.2657 7.425L29.3085 7.4074C29.3228 7.40164 29.337 7.39588 29.3513 7.39026C29.3655 7.38468 29.3799 7.37932 29.3942 7.37388C29.4085 7.36845 29.4226 7.36283 29.437 7.35754C29.4512 7.35231 29.4656 7.34745 29.4798 7.34237C29.4941 7.33729 29.5083 7.33214 29.5226 7.32721C29.5368 7.32227 29.5512 7.31755 29.5655 7.31279L29.6083 7.29881C29.6225 7.29423 29.6368 7.28954 29.6511 7.28507C29.6653 7.28067 29.6797 7.27652 29.6939 7.27227C29.7082 7.26797 29.7225 7.26357 29.7368 7.25942C29.751 7.25531 29.7653 7.25148 29.7796 7.24751L29.8224 7.23582C29.8367 7.23203 29.8509 7.22816 29.8652 7.22451C29.8795 7.2209 29.8938 7.2175 29.9081 7.214C29.9223 7.21049 29.9366 7.20684 29.9509 7.20348C29.9651 7.20016 29.9795 7.19704 29.9937 7.19386L30.0366 7.18449C30.0508 7.18145 30.065 7.1783 30.0794 7.1754C30.0936 7.17251 30.1079 7.1699 30.1222 7.16714C30.1365 7.16439 30.1507 7.16149 30.165 7.15888L30.2079 7.15144L30.2507 7.14432C30.265 7.142 30.2792 7.13953 30.2935 7.13735C30.3077 7.13517 30.3221 7.13334 30.3363 7.1313C30.3506 7.1293 30.3648 7.12719 30.3791 7.12529L30.422 7.11989L30.4648 7.11496C30.4791 7.11335 30.4933 7.11149 30.5076 7.11002C30.5219 7.10855 30.5362 7.10748 30.5504 7.10616L30.5933 7.10237C30.6076 7.10115 30.6218 7.09997 30.6361 7.09893C30.6504 7.09789 30.6647 7.09707 30.6789 7.09618C30.6932 7.09528 30.7074 7.09425 30.7218 7.09346C30.736 7.09267 30.7503 7.09214 30.7646 7.09149L30.8074 7.08985C30.8217 7.08935 30.8359 7.0886 30.8503 7.08824C30.8645 7.08788 30.8788 7.08792 30.8931 7.0877C30.9074 7.08749 30.9216 7.08724 30.9359 7.08716L30.9548 7.08691H30.9787H31.0216H31.0644H31.1072H31.15H31.1928H31.2357H31.2785H31.3213H31.3642H31.407H31.4498H31.4926H31.5355H31.5783H31.6211H31.6639H31.7068H31.7496H31.7924H31.8352H31.878H31.9209H31.9637H32.0065H32.0494H32.0922H32.135H32.1779H32.2207H32.2635H32.3063H32.3492H32.392H32.4348H32.4776H32.5204H32.5633H32.6061H32.6489H32.6917H32.7346H32.7774H32.8202H32.8631H32.9059H32.9487H32.9915H33.0344H33.0772H33.12H33.1628H33.2057H33.2485H33.2913H33.3341H33.377H33.4198H33.4626H33.5055H33.5483H33.5911H33.6339H33.6768H33.7196H33.7624H33.8052H33.8481H33.8909H33.9337H33.9765H34.0193H34.0622H34.105H34.1478H34.1907H34.2335H34.2763H34.3192H34.362H34.4048H34.4476H34.4904H34.5333H34.5761H34.6189H34.6617H34.7046H34.7474H34.7902H34.833H34.8759H34.9187H34.9615H35.0044H35.0472H35.09H35.1328H35.1757H35.2185H35.2613H35.3041H35.347H35.3898H35.4326H35.4754H35.5183H35.5611H35.6039H35.6468H35.6896H35.7324H35.7752H35.8181H35.8609H35.9037H35.9465H35.9893H36.0322H36.075H36.1178H36.1607H36.2035H36.2463H36.2891H36.332H36.3748H36.4176H36.4605H36.5033H36.5461H36.5889H36.6317H36.6746H36.7174H36.7602H36.803H36.8459H36.8887H36.9315H36.9743H37.0172H37.06H37.1028H37.1457H37.1885H37.2313H37.2741H37.3169H37.3598H37.4026H37.4454H37.4817V29.4428C37.4817 29.6372 37.4694 29.8286 37.4454 30.0165C37.4339 30.1069 37.4194 30.1964 37.4026 30.2851C37.3898 30.3526 37.3756 30.4196 37.3598 30.4859C37.3465 30.5419 37.3323 30.5974 37.3169 30.6525C37.3035 30.7008 37.2892 30.7488 37.2741 30.7964C37.2605 30.8396 37.2462 30.8823 37.2313 30.9249C37.2176 30.9643 37.2033 31.0034 37.1885 31.0423C37.1746 31.0786 37.1604 31.1146 37.1457 31.1504C37.1318 31.1842 37.1175 31.2178 37.1028 31.2511C37.0889 31.2828 37.0746 31.3141 37.06 31.3453C37.046 31.3752 37.0318 31.4048 37.0172 31.4343C37.0032 31.4625 36.9889 31.4906 36.9743 31.5185C36.9603 31.5454 36.9461 31.5721 36.9315 31.5987C36.9174 31.6243 36.9033 31.6499 36.8887 31.6753C36.8747 31.6997 36.8604 31.724 36.8459 31.7481C36.8318 31.7716 36.8175 31.7947 36.803 31.8178C36.789 31.8404 36.7747 31.8628 36.7602 31.8851C36.7461 31.9068 36.7319 31.9287 36.7174 31.9502C36.7033 31.971 36.689 31.9917 36.6746 32.0123C36.6605 32.0324 36.6462 32.0524 36.6317 32.0723C36.6176 32.0919 36.6034 32.1114 36.5889 32.1307C36.5748 32.1496 36.5605 32.1682 36.5461 32.1869C36.532 32.2051 36.5176 32.2232 36.5033 32.2412C36.4891 32.2589 36.4749 32.2767 36.4605 32.2942C36.4463 32.3114 36.432 32.3283 36.4176 32.3453C36.4035 32.3619 36.3892 32.3784 36.3748 32.3949C36.3606 32.4111 36.3464 32.4274 36.332 32.4434C36.3178 32.4591 36.3034 32.4745 36.2891 32.49C36.2749 32.5053 36.2607 32.5207 36.2463 32.5359C36.2321 32.5507 36.2178 32.5653 36.2035 32.58C36.1893 32.5944 36.1751 32.6088 36.1607 32.6231C36.1465 32.6373 36.1322 32.6513 36.1178 32.6652C36.1037 32.6789 36.0894 32.6925 36.075 32.706C36.0608 32.7194 36.0466 32.7329 36.0322 32.7461C36.018 32.7591 36.0037 32.7719 35.9893 32.7847C35.9751 32.7974 35.961 32.8103 35.9465 32.8229C35.9324 32.8352 35.918 32.8472 35.9037 32.8594C35.8894 32.8715 35.8753 32.8837 35.8609 32.8956C35.8467 32.9073 35.8323 32.9188 35.8181 32.9303C35.8038 32.9418 35.7896 32.9535 35.7752 32.9648C35.7611 32.976 35.7467 32.9868 35.7324 32.9978C35.7181 33.0088 35.704 33.0198 35.6896 33.0306C35.6754 33.0412 35.661 33.0516 35.6468 33.062C35.6325 33.0724 35.6183 33.083 35.6039 33.0932C35.5898 33.1033 35.5754 33.1131 35.5611 33.1231C35.5468 33.133 35.5327 33.1431 35.5183 33.1528C35.5041 33.1624 35.4897 33.1717 35.4754 33.1812C35.4612 33.1906 35.447 33.2003 35.4326 33.2095C35.4184 33.2187 35.404 33.2275 35.3898 33.2365C35.3755 33.2454 35.3613 33.2545 35.347 33.2633C35.3328 33.272 35.3184 33.2804 35.3041 33.289C35.2899 33.2975 35.2757 33.3061 35.2613 33.3144C35.2471 33.3227 35.2328 33.3308 35.2185 33.3389L35.1757 33.363L35.1328 33.3864L35.09 33.4091C35.0758 33.4165 35.0615 33.4241 35.0472 33.4314C35.033 33.4387 35.0187 33.4457 35.0044 33.4528C34.9901 33.4599 34.9759 33.4672 34.9615 33.4741C34.9474 33.481 34.933 33.4875 34.9187 33.4943C34.9044 33.501 34.8902 33.5079 34.8759 33.5144C34.8617 33.5209 34.8473 33.5272 34.833 33.5335L34.7902 33.5524L34.7474 33.5706L34.7046 33.5883C34.6903 33.5941 34.6761 33.6 34.6617 33.6057C34.6476 33.6113 34.6332 33.6166 34.6189 33.6221C34.6046 33.6275 34.5904 33.6331 34.5761 33.6385C34.5619 33.6437 34.5476 33.6488 34.5333 33.6539L34.4904 33.6691L34.4476 33.6839C34.4334 33.6887 34.4191 33.6932 34.4048 33.6979C34.3905 33.7025 34.3763 33.7074 34.362 33.7119C34.3478 33.7163 34.3334 33.7204 34.3192 33.7248L34.2763 33.7376L34.2335 33.7498C34.2192 33.7538 34.2049 33.7577 34.1907 33.7615C34.1764 33.7654 34.1622 33.7694 34.1478 33.7732C34.1336 33.7768 34.1193 33.7801 34.105 33.7837C34.0907 33.7872 34.0765 33.7908 34.0622 33.7942L34.0193 33.8041L33.9765 33.8135C33.9622 33.8166 33.9481 33.8199 33.9337 33.8229C33.9195 33.8258 33.9051 33.8284 33.8909 33.8312L33.8481 33.8394L33.8052 33.8472C33.791 33.8497 33.7767 33.852 33.7624 33.8543C33.7481 33.8567 33.7339 33.8592 33.7196 33.8614C33.7053 33.8637 33.691 33.8655 33.6768 33.8676L33.6339 33.8737C33.6197 33.8756 33.6054 33.8776 33.5911 33.8794C33.5769 33.8811 33.5626 33.8826 33.5483 33.8843C33.534 33.8859 33.5198 33.8877 33.5055 33.8892C33.4912 33.8907 33.4769 33.892 33.4626 33.8934L33.4198 33.8972C33.4055 33.8985 33.3913 33.8999 33.377 33.901C33.3628 33.9021 33.3484 33.9028 33.3341 33.9037L33.2913 33.9065L33.2485 33.9088C33.2343 33.9094 33.2199 33.9098 33.2057 33.9104C33.1914 33.9109 33.1771 33.9116 33.1628 33.912C33.1486 33.9124 33.1343 33.9125 33.12 33.9128L33.0772 33.9134C33.0638 33.9135 33.0506 33.9139 33.0372 33.9139H33.0344H32.9915H32.9487H32.9059H32.8631H32.8202H32.7774H32.7346H32.6917H32.6489H32.6061H32.5633H32.5204H32.4776H32.4348H32.392H32.3492H32.3063H32.2635H32.2207H32.1779H32.135H32.0922H32.0494H32.0065H31.9637H31.9209H31.878H31.8352H31.7924H31.7496H31.7068H31.6639H31.6211H31.5783H31.5355H31.4926H31.4498H31.407H31.3642H31.3213H31.2785H31.2357H31.1928H31.15H31.1072H31.0644H31.0216H30.9787H30.9359H30.8931H30.8503H30.8074H30.7646H30.7218H30.6789H30.6361H30.5933H30.5504H30.5076H30.4648H30.422H30.3791H30.3363H30.2935H30.2507H30.2079H30.165H30.1222H30.0794H30.0366H29.9937H29.9509H29.9081H29.8652H29.8224H29.7796H29.7368H29.6939H29.6511H29.6083H29.5655H29.5226H29.4798H29.437H29.3942H29.3513H29.3085H29.2657H29.2229H29.18H29.1372H29.0944H29.0515H29.0087H28.9659H28.9231H28.8802H28.8374H28.7946H28.7518H28.709H28.6661H28.6233H28.5805H28.5376H28.4948H28.452H28.4091H28.3663H28.3235H28.2807H28.2379H28.195H28.1522H28.1094H28.0666H28.0237H27.9809H27.9381H27.8953H27.8524H27.8096H27.7668H27.7239H27.6812H27.6383H27.5955H27.5527H27.5099H27.467H27.4242H27.3814H27.3386H27.2957H27.2529H27.2101H27.1672H27.1244H27.0816H27.0388H26.9959H26.9531H26.9103H26.8675H26.8247H26.7818H26.739H26.6962H26.6533H26.6105H26.5186V23.5905C26.5486 23.6164 26.5793 23.642 26.6105 23.6674C26.6247 23.6789 26.6389 23.6904 26.6533 23.7017C26.6675 23.713 26.6818 23.7242 26.6962 23.7353C26.7104 23.7462 26.7246 23.7572 26.739 23.7681C26.7531 23.7787 26.7675 23.7892 26.7818 23.7997C26.796 23.81 26.8103 23.8204 26.8247 23.8307C26.8388 23.8408 26.8531 23.8509 26.8675 23.8609L26.9103 23.8905C26.9244 23.9001 26.9388 23.9096 26.9531 23.9191L26.9959 23.9473C27.0101 23.9565 27.0244 23.9657 27.0388 23.9748C27.0529 23.9837 27.0673 23.9926 27.0816 24.0015L27.1244 24.0277C27.1387 24.0363 27.1529 24.0449 27.1672 24.0533C27.1814 24.0617 27.1957 24.0699 27.2101 24.0782L27.2529 24.1027L27.2957 24.1266L27.3386 24.1499C27.3528 24.1575 27.367 24.1653 27.3814 24.1728C27.3955 24.1803 27.4099 24.1877 27.4242 24.195L27.467 24.2169L27.5099 24.2383L27.5527 24.2592C27.5669 24.266 27.5811 24.273 27.5955 24.2798L27.6383 24.2996L27.6812 24.3194L27.7239 24.3384L27.7668 24.3572L27.8096 24.3756L27.8524 24.3936L27.8953 24.4112L27.9381 24.4284L27.9809 24.4454L28.0237 24.4618C28.038 24.4673 28.0522 24.4728 28.0666 24.4781L28.1094 24.4938C28.1236 24.4991 28.1378 24.5044 28.1522 24.5095C28.1664 24.5146 28.1808 24.5195 28.195 24.5245L28.2379 24.5395L28.2807 24.554C28.2949 24.5588 28.3091 24.5636 28.3235 24.5684C28.3376 24.5731 28.352 24.5776 28.3663 24.5822L28.4091 24.596L28.452 24.6092L28.4948 24.6224L28.5376 24.6351L28.5805 24.6477L28.6233 24.6599L28.6661 24.672L28.709 24.6837L28.7518 24.6952L28.7946 24.7065L28.8374 24.7175L28.8802 24.7283L28.9231 24.7387L28.9659 24.7492L29.0087 24.7591L29.0515 24.769L29.0944 24.7786L29.1372 24.788L29.18 24.7973L29.2229 24.8061L29.2657 24.815L29.3085 24.8235L29.3513 24.8319L29.3942 24.84L29.437 24.848L29.4798 24.8558L29.5226 24.8633L29.5655 24.8708L29.6083 24.8779L29.6511 24.885L29.6939 24.8919L29.7368 24.8984L29.7796 24.905L29.8224 24.9113L29.8652 24.9174L29.9081 24.9235L29.9509 24.9292L29.9937 24.9349L30.0366 24.9404L30.0794 24.9457L30.1222 24.9509L30.165 24.9559L30.2079 24.9607L30.2507 24.9655L30.2935 24.97L30.3363 24.9744L30.3791 24.9787L30.422 24.9827L30.4648 24.9868L30.5076 24.9906L30.5504 24.9942L30.5933 24.9979L30.6361 25.0012L30.6789 25.0045L30.7218 25.0077L30.7646 25.0106L30.8074 25.0135L30.8503 25.0164L30.8931 25.0189L30.9359 25.0214L30.9787 25.0239L31.0216 25.026L31.0644 25.0281L31.1072 25.0302L31.15 25.032L31.1928 25.0338L31.2357 25.0355L31.2785 25.0369L31.3213 25.0384L31.3642 25.0398L31.407 25.0408L31.4498 25.0419L31.4926 25.043L31.5355 25.0437L31.5783 25.0444L31.6211 25.0452L31.6639 25.0456L31.7068 25.046L31.7496 25.0464L31.7924 25.0466L31.8352 25.0467L31.878 25.0467L31.9209 25.0466L31.9637 25.0464L32.0065 25.0461L32.0494 25.0458L32.0922 25.0452L32.135 25.0446L32.1779 25.0441L32.2207 25.0432L32.2635 25.0423L32.3063 25.0414L32.3492 25.0403L32.392 25.0391L32.4348 25.0379L32.4776 25.0366L32.5204 25.0351L32.5633 25.0336L32.6061 25.0321L32.6489 25.0304L32.6917 25.0286L32.7346 25.0268L32.7555 25.0259L32.7774 25.0248L32.8202 25.0227L32.8631 25.0204L32.9059 25.0181L32.9487 25.0155L32.9915 25.0128L33.0344 25.0099L33.0772 25.007L33.12 25.0038L33.1628 25.0006L33.2057 24.9972L33.2485 24.9937L33.2913 24.99L33.3341 24.9862L33.377 24.9823L33.4198 24.9782L33.4626 24.9741L33.5055 24.9698L33.5483 24.9654L33.5911 24.9609L33.6339 24.9562L33.6768 24.9515L33.7196 24.9466L33.7624 24.9416L33.8052 24.9366L33.8481 24.9314L33.8909 24.9261L33.9337 24.9207L33.9765 24.9152L34.0193 24.9096L34.0622 24.9039L34.105 24.8981L34.1478 24.8922L34.1907 24.8862L34.2335 24.8801L34.2763 24.8739L34.3192 24.8676L34.362 24.8612L34.4048 24.8547L34.4476 24.8482L34.4904 24.8415L34.5333 24.8347L34.5761 24.8278L34.6189 24.8209L34.6617 24.8139L34.7046 24.8068L34.7474 24.7996L34.7902 24.7923L34.833 24.7849L34.8759 24.7774L34.9187 24.7699L34.9615 24.7622L35.0044 24.7545L35.0472 24.7467L35.09 24.7388L35.1328 24.7309L35.1757 24.7228L35.2185 24.7146L35.2613 24.7064L35.3041 24.6981L35.347 24.6897L35.3898 24.6812L35.4326 24.6727L35.4754 24.664L35.5183 24.6553L35.5611 24.6465L35.6039 24.6375L35.6468 24.6285L35.6896 24.6195L35.7324 24.6103L35.7752 24.601L35.8181 24.5917L35.8609 24.5822L35.9037 24.5727L35.9465 24.563L35.9893 24.5533L36.0322 24.5434L36.075 24.5334L36.1178 24.5233L36.1607 24.5131L36.2035 24.5027L36.2461 24.4921V22.6008L36.2035 22.6221L36.1607 22.6434L36.1178 22.6644L36.075 22.6853L36.0322 22.7061L35.9893 22.7266L35.9465 22.7468L35.9037 22.7669L35.8609 22.7868L35.8181 22.8064L35.7752 22.8258L35.7324 22.8451L35.6896 22.864L35.6468 22.8828L35.6039 22.9014L35.5611 22.9197L35.5183 22.9378L35.4754 22.9557L35.4326 22.9732L35.3898 22.9906L35.347 23.0078L35.3041 23.0248L35.2613 23.0414L35.2185 23.0578L35.1757 23.074L35.1328 23.09L35.09 23.1057L35.0472 23.1212L35.0044 23.1364L34.9615 23.1514L34.9187 23.1661L34.8759 23.1806L34.833 23.1948L34.7902 23.2088L34.7474 23.2226L34.7046 23.2361L34.6617 23.2493L34.6189 23.2624L34.5761 23.2752L34.5333 23.2877L34.4904 23.3L34.4476 23.312L34.4048 23.3238L34.362 23.3353L34.3192 23.3466L34.2763 23.3577L34.2335 23.3685L34.1907 23.379L34.1478 23.3894L34.105 23.3995L34.0622 23.4093L34.0193 23.4189L33.9765 23.4283L33.9337 23.4374L33.8909 23.4462L33.8481 23.4549L33.8052 23.4633L33.7624 23.4715L33.7196 23.4794L33.6768 23.4871L33.6339 23.4945L33.5911 23.5017L33.5483 23.5087L33.5055 23.5155L33.4626 23.5219L33.4198 23.5282L33.377 23.5343L33.3341 23.5401L33.2913 23.5456L33.2485 23.551L33.2057 23.5561L33.1628 23.561L33.12 23.5656L33.0772 23.5701L33.0344 23.5743L32.9915 23.5783L32.9487 23.5821L32.9059 23.5856L32.8799 23.5876L32.8631 23.5888L32.8202 23.5917L32.7774 23.5945L32.7346 23.5969L32.6917 23.5991L32.6489 23.6011L32.6061 23.6024L32.5633 23.6038L32.5204 23.6048L32.4776 23.6054L32.4348 23.606C32.4205 23.606 32.4063 23.6058 32.392 23.6058L32.3492 23.6057L32.3063 23.605L32.2635 23.6041L32.2207 23.603C32.2063 23.6025 32.1921 23.6018 32.1779 23.6012C32.1636 23.6007 32.1492 23.6002 32.135 23.5995L32.0922 23.5971L32.0494 23.5945L32.0065 23.5915L31.9637 23.5881C31.9494 23.5869 31.9351 23.5859 31.9209 23.5846C31.9065 23.5833 31.8923 23.5817 31.878 23.5803L31.8352 23.5759L31.7924 23.5709L31.7496 23.5657L31.7068 23.56L31.6639 23.5539C31.6496 23.5518 31.6353 23.5498 31.6211 23.5475C31.6068 23.5453 31.5925 23.5428 31.5783 23.5404C31.564 23.538 31.5496 23.5358 31.5355 23.5332C31.5211 23.5307 31.5069 23.5278 31.4926 23.5252C31.4784 23.5225 31.464 23.5199 31.4498 23.5171C31.4354 23.5142 31.4213 23.5111 31.407 23.5081C31.3927 23.5051 31.3783 23.5022 31.3642 23.499C31.3498 23.4959 31.3356 23.4925 31.3213 23.4891L31.2785 23.479C31.2641 23.4755 31.2499 23.4718 31.2357 23.4681C31.2214 23.4645 31.207 23.4608 31.1928 23.457C31.1785 23.4531 31.1643 23.4491 31.15 23.4451C31.1357 23.441 31.1214 23.437 31.1072 23.4328C31.0928 23.4285 31.0786 23.4241 31.0644 23.4197C31.05 23.4153 31.0358 23.4108 31.0216 23.4063C31.0072 23.4016 30.9929 23.3968 30.9787 23.392C30.9644 23.3872 30.9501 23.3824 30.9359 23.3774C30.9215 23.3724 30.9073 23.3671 30.8931 23.3619C30.8788 23.3566 30.8644 23.3514 30.8503 23.346C30.8359 23.3405 30.8217 23.3348 30.8074 23.3291C30.7931 23.3234 30.7788 23.3178 30.7646 23.312C30.7502 23.306 30.736 23.2997 30.7218 23.2936C30.7074 23.2874 30.6931 23.2813 30.6789 23.2749C30.6645 23.2684 30.6503 23.2617 30.6361 23.2551C30.6218 23.2483 30.6074 23.2416 30.5933 23.2348C30.5789 23.2277 30.5646 23.2206 30.5504 23.2134C30.5361 23.2061 30.5218 23.1987 30.5076 23.1913C30.4933 23.1837 30.4789 23.1762 30.4648 23.1685C30.4504 23.1606 30.4362 23.1524 30.422 23.1443C30.4077 23.1361 30.3933 23.1279 30.3791 23.1195C30.3647 23.111 30.3505 23.1023 30.3363 23.0935C30.3219 23.0847 30.3077 23.0756 30.2935 23.0665C30.2792 23.0573 30.2648 23.0481 30.2507 23.0387C30.2362 23.0291 30.2221 23.0191 30.2079 23.0092C30.1935 22.9992 30.1792 22.989 30.165 22.9788C30.1507 22.9683 30.1363 22.9579 30.1222 22.9473C30.1077 22.9363 30.0936 22.9251 30.0794 22.9139C30.065 22.9026 30.0507 22.8911 30.0366 22.8795C30.0222 22.8677 30.0078 22.8559 29.9937 22.8438C29.9792 22.8313 29.9651 22.8186 29.9509 22.8059C29.9364 22.7929 29.9222 22.7797 29.9081 22.7664C29.8937 22.7529 29.8793 22.7392 29.8652 22.7254C29.8508 22.7112 29.8364 22.697 29.8224 22.6826C29.8079 22.6676 29.7937 22.6523 29.7796 22.637C29.7651 22.6213 29.7509 22.6054 29.7368 22.5893C29.7223 22.5728 29.708 22.5561 29.6939 22.5392C29.6795 22.5219 29.6652 22.5043 29.6511 22.4865C29.6366 22.4681 29.6223 22.4495 29.6083 22.4307C29.5938 22.4113 29.5794 22.3916 29.5655 22.3717C29.5509 22.351 29.5366 22.3301 29.5226 22.3089C29.508 22.2867 29.4938 22.2643 29.4798 22.2417C29.4652 22.2179 29.4509 22.1939 29.437 22.1696C29.4223 22.144 29.4081 22.118 29.3942 22.0918C29.3794 22.064 29.3652 22.0358 29.3513 22.0074C29.3366 21.977 29.3223 21.9463 29.3085 21.9152C29.2937 21.8817 29.2793 21.848 29.2657 21.8136C29.2506 21.7757 29.2365 21.737 29.2229 21.6979C29.2077 21.6546 29.1934 21.6108 29.18 21.5661C29.1646 21.5144 29.1502 21.4618 29.1372 21.4082C29.121 21.3417 29.1068 21.2737 29.0944 21.2044C29.0759 21.1018 29.0616 20.9963 29.0515 20.8879C29.04 20.7627 29.0341 20.6338 29.0341 20.5011C29.0341 20.3684 29.04 20.2394 29.0515 20.1141C29.0616 20.0057 29.0759 19.9001 29.0944 19.7974C29.1068 19.7282 29.121 19.6601 29.1372 19.5935C29.1502 19.54 29.1646 19.4873 29.18 19.4356C29.1934 19.3909 29.2077 19.347 29.2229 19.3036C29.2365 19.2646 29.2506 19.2259 29.2657 19.1879C29.2793 19.1535 29.2937 19.1198 29.3085 19.0863C29.3223 19.0552 29.3366 19.0244 29.3513 18.9941C29.3652 18.9656 29.3794 18.9374 29.3942 18.9096C29.4081 18.8834 29.4223 18.8574 29.437 18.8318C29.4509 18.8075 29.4652 18.7834 29.4798 18.7596C29.4938 18.737 29.508 18.7146 29.5226 18.6924C29.5366 18.6712 29.5509 18.6503 29.5655 18.6296C29.5794 18.6096 29.5938 18.59 29.6083 18.5705C29.6223 18.5517 29.6366 18.5331 29.6511 18.5147C29.6652 18.4969 29.6795 18.4794 29.6939 18.462C29.708 18.4451 29.7223 18.4284 29.7368 18.4118C29.7509 18.3958 29.7651 18.3798 29.7796 18.3641C29.7937 18.3488 29.8079 18.3335 29.8224 18.3185C29.8364 18.3041 29.8508 18.2899 29.8652 18.2757C29.8793 18.2619 29.8937 18.2482 29.9081 18.2346C29.9222 18.2214 29.9364 18.2081 29.9509 18.1951C29.9651 18.1824 29.9792 18.1697 29.9937 18.1573C30.0078 18.1452 30.0222 18.1334 30.0366 18.1215C30.0507 18.1099 30.065 18.0984 30.0794 18.0871C30.0936 18.0758 30.1077 18.0646 30.1222 18.0537C30.1363 18.043 30.1507 18.0326 30.165 18.0222C30.1792 18.0119 30.1935 18.0018 30.2079 17.9918C30.2221 17.9819 30.2362 17.9719 30.2507 17.9622C30.2648 17.9528 30.2792 17.9436 30.2935 17.9344C30.3077 17.9253 30.3219 17.9163 30.3363 17.9074C30.3505 17.8986 30.3647 17.8899 30.3791 17.8814C30.3933 17.873 30.4077 17.8648 30.422 17.8566C30.4362 17.8485 30.4504 17.8404 30.4648 17.8325C30.4789 17.8247 30.4933 17.8172 30.5076 17.8096C30.5218 17.8022 30.5361 17.7948 30.5504 17.7875C30.5646 17.7803 30.5789 17.7732 30.5933 17.7661C30.6074 17.7592 30.6218 17.7525 30.6361 17.7458C30.6503 17.7391 30.6645 17.7324 30.6789 17.7259C30.6931 17.7196 30.7074 17.7135 30.7218 17.7073C30.736 17.7011 30.7502 17.6949 30.7646 17.6889C30.7788 17.683 30.7931 17.6774 30.8074 17.6717C30.8217 17.666 30.8359 17.6603 30.8503 17.6548C30.8644 17.6494 30.8788 17.6442 30.8931 17.6389C30.9073 17.6337 30.9215 17.6285 30.9359 17.6234C30.9501 17.6184 30.9644 17.6136 30.9787 17.6088C30.9929 17.604 31.0072 17.5992 31.0216 17.5945C31.0358 17.5899 31.05 17.5855 31.0644 17.5811C31.0786 17.5767 31.0928 17.5723 31.1072 17.5681L31.15 17.5558C31.1643 17.5517 31.1785 17.5477 31.1928 17.5438C31.207 17.54 31.2214 17.5363 31.2357 17.5326C31.2499 17.529 31.2641 17.5253 31.2785 17.5218L31.3213 17.5116C31.3356 17.5083 31.3498 17.5049 31.3642 17.5017C31.3783 17.4986 31.3927 17.4957 31.407 17.4927C31.4213 17.4897 31.4354 17.4865 31.4498 17.4836C31.464 17.4808 31.4784 17.4783 31.4926 17.4756C31.5069 17.4729 31.5211 17.4701 31.5355 17.4675C31.5496 17.465 31.564 17.4628 31.5783 17.4604C31.5925 17.458 31.6068 17.4555 31.6211 17.4532L31.6639 17.4468L31.7068 17.4407L31.7496 17.435L31.7924 17.4298L31.8352 17.4248L31.878 17.4204C31.8923 17.419 31.9065 17.4174 31.9209 17.4161C31.9351 17.4148 31.9494 17.4138 31.9637 17.4126L32.0065 17.4092L32.0494 17.4062L32.0922 17.4036L32.135 17.4012C32.1492 17.4005 32.1636 17.4001 32.1779 17.3995C32.1921 17.3989 32.2063 17.3982 32.2207 17.3977L32.2635 17.3966L32.3063 17.3957L32.3492 17.395L32.392 17.3949C32.4063 17.3949 32.4205 17.3947 32.4348 17.3948L32.4776 17.3953L32.5204 17.3959L32.5633 17.3969L32.6061 17.3983L32.6489 17.3997L32.6917 17.4017L32.7346 17.4038L32.7774 17.4062L32.8202 17.409L32.8631 17.4119L32.8799 17.4131L32.9059 17.4151L32.9487 17.4186L32.9915 17.4223L33.0344 17.4262L33.0772 17.4303L33.12 17.4347L33.1628 17.4394L33.2057 17.4442L33.2485 17.4492L33.2913 17.4545L33.3341 17.46L33.377 17.4657L33.4198 17.4717L33.4626 17.4778L33.5055 17.4843L33.5483 17.4909L33.5911 17.4978L33.6339 17.5049L33.6768 17.5123L33.7196 17.5199L33.7624 17.5278L33.8052 17.5358L33.8481 17.5442L33.8909 17.5527L33.9337 17.5615L33.9765 17.5706L34.0193 17.5799L34.0622 17.5894L34.105 17.5991L34.1478 17.6092L34.1907 17.6195L34.2335 17.63L34.2763 17.6407L34.3192 17.6517L34.362 17.663L34.4048 17.6745L34.4476 17.6862L34.4904 17.6983L34.5333 17.7105L34.5761 17.723L34.6189 17.7358L34.6617 17.7488L34.7046 17.762L34.7474 17.7755L34.7902 17.7893L34.833 17.8033L34.8759 17.8176L34.9187 17.8321L34.9615 17.8468L35.0044 17.8618L35.0472 17.8771L35.09 17.8927L35.1328 17.9084L35.1757 17.9244L35.2185 17.9407L35.2613 17.9572L35.3041 17.974L35.347 17.9909L35.3898 18.0082L35.4326 18.0257L35.4754 18.0434L35.5183 18.0614L35.5611 18.0796L35.6039 18.0981L35.6468 18.1167L35.6896 18.1357L35.7324 18.1548L35.7752 18.1741L35.8181 18.1937L35.8609 18.2136L35.9037 18.2336L35.9465 18.2539L35.9893 18.2743L36.0322 18.295L36.075 18.3159L36.1178 18.337L36.1607 18.3583L36.2035 18.3798L36.2461 18.4013V16.5086L36.2035 16.498L36.1607 16.4876L36.1178 16.4774L36.075 16.4673L36.0322 16.4573L35.9893 16.4475L35.9465 16.4377L35.9037 16.428L35.8609 16.4185L35.8181 16.4091L35.7752 16.3997L35.7324 16.3905L35.6896 16.3813L35.6468 16.3722L35.6039 16.3632L35.5611 16.3543L35.5183 16.3455L35.4754 16.3368L35.4326 16.3281L35.3898 16.3196L35.347 16.3111L35.3041 16.3027L35.2613 16.2944L35.2185 16.2862L35.1757 16.278L35.1328 16.27L35.09 16.262L35.0472 16.2541L35.0044 16.2463L34.9615 16.2386L34.9187 16.231L34.8759 16.2235L34.833 16.216L34.7902 16.2086L34.7474 16.2013L34.7046 16.1942L34.6617 16.187L34.6189 16.18L34.5761 16.1731L34.5333 16.1663L34.4904 16.1595L34.4476 16.1528L34.4048 16.1463L34.362 16.1398L34.3192 16.1334L34.2763 16.1272L34.2335 16.121L34.1907 16.1149L34.1478 16.1089L34.105 16.103L34.0622 16.0972L34.0193 16.0915L33.9765 16.086L33.9337 16.0805L33.8909 16.0751L33.8481 16.0698L33.8052 16.0646L33.7624 16.0596L33.7196 16.0546L33.6768 16.0498L33.6339 16.045L33.5911 16.0404L33.5483 16.0359L33.5055 16.0316L33.4626 16.0273L33.4198 16.0231L33.377 16.0191L33.3341 16.0152L33.2913 16.0114L33.2485 16.0078L33.2057 16.0043L33.1628 16.0009L33.12 15.9977L33.0772 15.9945L33.0344 15.9916L32.9915 15.9887L32.9487 15.9861L32.9059 15.9835L32.8631 15.9812L32.8202 15.9789L32.7774 15.9768L32.7555 15.9758L32.7346 15.9749L32.6917 15.9731L32.6489 15.9713L32.6061 15.9695L32.5633 15.968L32.5204 15.9666L32.4776 15.9651L32.4348 15.9638L32.392 15.9626L32.3492 15.9614L32.3063 15.9603L32.2635 15.9594L32.2207 15.9585L32.1779 15.9576L32.135 15.9571L32.0922 15.9565L32.0494 15.9559L32.0065 15.9556L31.9637 15.9553L31.9209 15.9551L31.878 15.955L31.8352 15.955L31.7924 15.9551L31.7496 15.9553L31.7068 15.9557L31.6639 15.9561L31.6211 15.9565L31.5783 15.9573L31.5355 15.958L31.4926 15.9587L31.4498 15.9598L31.407 15.9609L31.3642 15.962L31.3213 15.9633L31.2785 15.9648L31.2357 15.9662L31.1928 15.968L31.15 15.9698L31.1072 15.9715L31.0644 15.9736L31.0216 15.9758L30.9787 15.9779L30.9359 15.9803L30.8931 15.9828L30.8503 15.9853L30.8074 15.9882L30.7646 15.9911L30.7218 15.994L30.6789 15.9973L30.6361 16.0005L30.5933 16.0039L30.5504 16.0076L30.5076 16.0112L30.4648 16.015L30.422 16.019L30.3791 16.0231L30.3363 16.0274L30.2935 16.0318L30.2507 16.0363L30.2079 16.0411L30.165 16.0459L30.1222 16.0509L30.0794 16.0562L30.0366 16.0614L29.9937 16.067L29.9509 16.0727L29.9081 16.0783L29.8652 16.0844L29.8224 16.0905L29.7796 16.0968L29.7368 16.1034L29.6939 16.11L29.6511 16.1169L29.6083 16.1239L29.5655 16.1311L29.5226 16.1386L29.4798 16.1461L29.437 16.1539L29.3942 16.1619L29.3513 16.1701L29.3085 16.1785L29.2657 16.1869L29.2229 16.1958L29.18 16.2047L29.1372 16.2139L29.0944 16.2233L29.0515 16.2329L29.0087 16.2428L28.9659 16.2528L28.9231 16.2632L28.8802 16.2737L28.8374 16.2845L28.7946 16.2955L28.7518 16.3068L28.709 16.3183L28.6661 16.33L28.6233 16.3421L28.5805 16.3543L28.5376 16.367L28.4948 16.3797L28.452 16.3929L28.4091 16.4061L28.3663 16.4199C28.352 16.4245 28.3376 16.4291 28.3235 16.4337L28.2807 16.4482C28.2664 16.4529 28.252 16.4577 28.2379 16.4626L28.195 16.4776L28.1522 16.4926C28.1378 16.4978 28.1236 16.5031 28.1094 16.5083C28.0951 16.5135 28.0807 16.5187 28.0666 16.524L28.0237 16.5404C28.0094 16.5458 27.9951 16.5512 27.9809 16.5567L27.9381 16.5738L27.8953 16.5909L27.8524 16.6086L27.8096 16.6266L27.7668 16.645L27.7239 16.6638L27.6812 16.6829L27.6383 16.7026L27.5955 16.7225C27.5811 16.7293 27.5669 16.7362 27.5527 16.7431L27.5099 16.7639L27.467 16.7854L27.4242 16.8073C27.4099 16.8147 27.3955 16.822 27.3814 16.8295C27.367 16.8371 27.3528 16.8448 27.3386 16.8525L27.2957 16.8758L27.2529 16.8997C27.2385 16.9078 27.2243 16.916 27.2101 16.9242C27.1957 16.9325 27.1814 16.9407 27.1672 16.949C27.1529 16.9575 27.1387 16.9661 27.1244 16.9747C27.11 16.9834 27.0958 16.9922 27.0816 17.001C27.0673 17.0098 27.0529 17.0187 27.0388 17.0276C27.0244 17.0368 27.0101 17.046 26.9959 17.0552L26.9531 17.0833C26.9388 17.0929 26.9244 17.1024 26.9103 17.112L26.8675 17.1416C26.8531 17.1516 26.8388 17.1617 26.8247 17.1719C26.8103 17.1821 26.796 17.1925 26.7818 17.2029C26.7675 17.2134 26.7531 17.2239 26.739 17.2345C26.7246 17.2454 26.7104 17.2563 26.6962 17.2673C26.6818 17.2784 26.6675 17.2896 26.6533 17.3008C26.6389 17.3122 26.6247 17.3237 26.6105 17.3352V17.3351V17.3351Z" fill="url(#paint2_linear)"/>
</g>
<defs>
<linearGradient id="paint0_linear" x1="38.8145" y1="20.4994" x2="49.7785" y2="20.4994" gradientUnits="userSpaceOnUse">
<stop stop-color="#007B40"/>
<stop offset="1" stop-color="#55B330"/>
</linearGradient>
<linearGradient id="paint1_linear" x1="14.2217" y1="20.4994" x2="25.1844" y2="20.4994" gradientUnits="userSpaceOnUse">
<stop stop-color="#1D2970"/>
<stop offset="1" stop-color="#006DBA"/>
</linearGradient>
<linearGradient id="paint2_linear" x1="26.5186" y1="20.5004" x2="37.4817" y2="20.5004" gradientUnits="userSpaceOnUse">
<stop stop-color="#6E2B2F"/>
<stop offset="1" stop-color="#E30138"/>
</linearGradient>
<clipPath id="clip0">
<rect x="12" y="5" width="40" height="31" fill="white"/>
</clipPath>
</defs>
</svg>
