<svg width="459" height="126" viewBox="0 0 459 126" fill="none" xmlns="http://www.w3.org/2000/svg">
<g clip-path="url(#clip0)">
<path d="M72.9788 104.12C75.0834 104.12 98.1362 80.8121 98.1362 52.0601C98.1362 23.3081 75.0834 0 72.9788 0C70.8741 0 47.8213 23.3081 47.8213 52.0601C47.8213 80.8121 70.8741 104.12 72.9788 104.12Z" fill="white"/>
<path d="M118.396 25.2598C113.511 26.6373 108.311 28.5766 103.201 31.2753C101.776 26.7712 99.9989 22.5701 98.0703 18.7454C104.552 13.5285 109.9 10.8409 110.748 11.0749C111.628 11.3191 115.203 16.8326 118.396 25.2598Z" fill="white"/>
<path d="M34.3863 11.0755C35.2544 10.834 40.905 13.6932 47.6489 19.2226C45.8022 22.9424 44.0988 27.0096 42.7312 31.358C37.3672 28.5083 31.9009 26.4975 26.7949 25.0978C29.9723 16.7621 33.5101 11.318 34.3863 11.0755Z" fill="white"/>
<path d="M0.619791 29.2515C1.80998 28.02 22.6619 27.5272 41.0164 37.7785C40.0209 42.3182 39.4345 47.1002 39.4345 52.0601C39.4345 68.7642 46.0855 83.4503 52.6168 93.6609C54.9497 97.3079 57.3326 100.487 59.5199 103.101C47.8212 101.951 30.7261 97.214 18.4088 84.4695C-1.24039 64.1388 -0.868421 30.7913 0.619791 29.2515Z" fill="white"/>
<path d="M106.521 52.0601C106.521 47.0671 105.927 42.2545 104.919 37.6877C123.234 27.5304 143.966 28.0238 145.152 29.2517C146.64 30.7915 147.012 64.139 127.363 84.4697C115.118 97.14 98.1358 101.951 86.4541 103.078C88.6363 100.469 91.0122 97.2974 93.3383 93.6609C99.8697 83.4503 106.521 68.7642 106.521 52.0601Z" fill="white"/>
<path d="M73.0085 112.933C32.5553 112.933 17.841 96.1271 13.6206 89.523C13.1558 88.7957 11.9963 89.0455 11.9933 89.9174C11.9788 94.2568 12.9401 102.407 19.5204 108.459C30.1341 118.22 49.919 125.812 73.0085 125.812C96.0979 125.812 115.883 118.22 126.497 108.458C133.077 102.406 134.038 94.2562 134.024 89.9168C134.021 89.0449 132.861 88.7951 132.396 89.5224C128.176 96.1265 113.462 112.933 73.0085 112.933Z" fill="white"/>
<path d="M237.306 87.8689H223.506V24.774H203.393C202.918 34.0083 202.239 42.0033 201.356 48.7592C200.507 55.4812 199.472 61.2187 198.25 65.9716C197.062 70.6905 195.687 74.5268 194.125 77.4804C192.598 80.434 190.917 82.7425 189.084 84.4061C187.251 86.0356 185.282 87.156 183.178 87.767C181.073 88.3442 178.866 88.6328 176.558 88.6328C174.114 88.6328 172.332 88.4121 171.211 87.9707C170.091 87.5294 169.531 86.8844 169.531 86.0356V77.4804H173.452C174.334 77.4804 175.217 77.3785 176.1 77.1748C177.016 76.9712 177.916 76.5468 178.798 75.9017C179.715 75.2228 180.598 74.2552 181.446 72.9991C182.329 71.743 183.161 70.0625 183.941 67.9576C184.756 65.8188 185.503 63.2047 186.182 60.1153C186.895 57.0259 187.523 53.3085 188.066 48.9629C188.643 44.6174 189.135 39.5929 189.543 33.8894C189.984 28.152 190.306 21.5998 190.51 14.2328H237.306V87.8689Z" fill="white"/>
<path d="M273.257 34.8062C277.127 34.8062 280.641 35.4342 283.798 36.6904C286.989 37.9465 289.705 39.7288 291.945 42.0374C294.219 44.3459 295.968 47.1637 297.19 50.4908C298.412 53.8178 299.023 57.5352 299.023 61.6431C299.023 65.7849 298.412 69.5194 297.19 72.8464C295.968 76.1734 294.219 79.0082 291.945 81.3507C289.705 83.6932 286.989 85.4924 283.798 86.7486C280.641 88.0047 277.127 88.6329 273.257 88.6329C269.353 88.6329 265.806 88.0047 262.615 86.7486C259.424 85.4924 256.691 83.6932 254.417 81.3507C252.176 79.0082 250.428 76.1734 249.172 72.8464C247.95 69.5194 247.339 65.7849 247.339 61.6431C247.339 57.5352 247.95 53.8178 249.172 50.4908C250.428 47.1637 252.176 44.3459 254.417 42.0374C256.691 39.7288 259.424 37.9465 262.615 36.6904C265.806 35.4342 269.353 34.8062 273.257 34.8062ZM273.257 78.9573C277.602 78.9573 280.81 77.4975 282.881 74.5778C284.986 71.6582 286.038 67.3806 286.038 61.745C286.038 56.1094 284.986 51.8148 282.881 48.8612C280.81 45.9076 277.602 44.4308 273.257 44.4308C268.844 44.4308 265.568 45.9246 263.43 48.9121C261.325 51.8657 260.273 56.1433 260.273 61.745C260.273 67.3466 261.325 71.6242 263.43 74.5778C265.568 77.4975 268.844 78.9573 273.257 78.9573Z" fill="white"/>
<path d="M351.936 44.9399H333.3V87.8689H320.722V44.9399H302.136V35.6208H351.936V44.9399Z" fill="white"/>
<path d="M380.966 34.8062C384.836 34.8062 388.349 35.4342 391.506 36.6904C394.697 37.9465 397.413 39.7288 399.654 42.0374C401.928 44.3459 403.676 47.1637 404.898 50.4908C406.12 53.8178 406.731 57.5352 406.731 61.6431C406.731 65.7849 406.12 69.5194 404.898 72.8464C403.676 76.1734 401.928 79.0082 399.654 81.3507C397.413 83.6932 394.697 85.4924 391.506 86.7486C388.349 88.0047 384.836 88.6329 380.966 88.6329C377.062 88.6329 373.514 88.0047 370.323 86.7486C367.132 85.4924 364.4 83.6932 362.125 81.3507C359.885 79.0082 358.136 76.1734 356.88 72.8464C355.658 69.5194 355.047 65.7849 355.047 61.6431C355.047 57.5352 355.658 53.8178 356.88 50.4908C358.136 47.1637 359.885 44.3459 362.125 42.0374C364.4 39.7288 367.132 37.9465 370.323 36.6904C373.514 35.4342 377.062 34.8062 380.966 34.8062ZM380.966 78.9573C385.311 78.9573 388.519 77.4975 390.59 74.5778C392.694 71.6582 393.747 67.3806 393.747 61.745C393.747 56.1094 392.694 51.8148 390.59 48.8612C388.519 45.9076 385.311 44.4308 380.966 44.4308C376.553 44.4308 373.277 45.9246 371.138 48.9121C369.033 51.8657 367.981 56.1433 367.981 61.745C367.981 67.3466 369.033 71.6242 371.138 74.5778C373.277 77.4975 376.553 78.9573 380.966 78.9573Z" fill="white"/>
<path d="M453.753 46.6715C453.38 47.1467 453.006 47.5202 452.633 47.7918C452.294 48.0634 451.784 48.1992 451.105 48.1992C450.46 48.1992 449.832 48.0125 449.221 47.639C448.61 47.2316 447.88 46.7903 447.032 46.315C446.183 45.8058 445.165 45.3644 443.977 44.991C442.822 44.5836 441.38 44.3799 439.648 44.3799C437.442 44.3799 435.507 44.7873 433.843 45.6021C432.18 46.3829 430.788 47.5202 429.668 49.014C428.582 50.5077 427.767 52.324 427.224 54.4628C426.681 56.5677 426.409 58.9611 426.409 61.6431C426.409 64.427 426.698 66.9053 427.275 69.078C427.886 71.2508 428.751 73.0841 429.872 74.5778C430.992 76.0376 432.35 77.158 433.945 77.9388C435.541 78.6857 437.34 79.0591 439.343 79.0591C441.346 79.0591 442.958 78.8215 444.18 78.3462C445.436 77.837 446.489 77.2938 447.337 76.7166C448.186 76.1055 448.916 75.5624 449.527 75.0871C450.172 74.5778 450.885 74.3232 451.666 74.3232C452.684 74.3232 453.448 74.7136 453.957 75.4945L457.572 80.0776C456.18 81.7072 454.67 83.0821 453.04 84.2025C451.411 85.2888 449.714 86.1715 447.948 86.8505C446.217 87.4956 444.418 87.9539 442.551 88.2255C440.718 88.4971 438.885 88.6329 437.051 88.6329C433.826 88.6329 430.788 88.0387 427.937 86.8505C425.085 85.6283 422.59 83.863 420.451 81.5544C418.313 79.2459 416.615 76.4281 415.359 73.101C414.137 69.74 413.526 65.9207 413.526 61.6431C413.526 57.8068 414.069 54.2591 415.156 51C416.276 47.7069 417.905 44.8721 420.044 42.4957C422.183 40.0853 424.83 38.2011 427.988 36.8431C431.145 35.4851 434.777 34.8062 438.885 34.8062C442.788 34.8062 446.2 35.4342 449.12 36.6904C452.073 37.9465 454.721 39.7458 457.063 42.0883L453.753 46.6715Z" fill="white"/>
<path d="M384.15 7.52881V21.9672H381.784V12.6411C381.784 12.2684 381.804 11.8656 381.844 11.4329L377.481 19.6307C377.274 20.0235 376.958 20.2198 376.532 20.2198H376.153C375.727 20.2198 375.411 20.0235 375.204 19.6307L370.791 11.403C370.811 11.6227 370.828 11.839 370.841 12.052C370.854 12.265 370.861 12.4614 370.861 12.6411V21.9672H368.495V7.52881H370.522C370.641 7.52881 370.744 7.53213 370.831 7.53879C370.918 7.54545 370.994 7.56209 371.061 7.58872C371.134 7.61534 371.197 7.65861 371.25 7.71852C371.31 7.77843 371.367 7.85831 371.42 7.95816L375.743 15.9762C375.856 16.1892 375.96 16.4088 376.053 16.6352C376.153 16.8615 376.249 17.0945 376.342 17.3341C376.436 17.0878 376.532 16.8515 376.632 16.6252C376.732 16.3922 376.838 16.1692 376.951 15.9562L381.215 7.95816C381.268 7.85831 381.325 7.77843 381.385 7.71852C381.444 7.65861 381.508 7.61534 381.574 7.58872C381.647 7.56209 381.727 7.54545 381.814 7.53879C381.9 7.53213 382.004 7.52881 382.123 7.52881H384.15Z" fill="white"/>
<path d="M396.966 16.5154L395.209 11.7125C395.123 11.4995 395.033 11.2466 394.94 10.9537C394.846 10.6608 394.753 10.3446 394.66 10.0051C394.573 10.3446 394.484 10.6641 394.39 10.9636C394.297 11.2565 394.207 11.5128 394.121 11.7325L392.374 16.5154H396.966ZM401.709 21.9672H399.632C399.399 21.9672 399.21 21.9106 399.063 21.7975C398.917 21.6777 398.807 21.5312 398.734 21.3581L397.655 18.4125H391.675L390.596 21.3581C390.543 21.5112 390.44 21.651 390.287 21.7775C390.134 21.904 389.941 21.9672 389.708 21.9672H387.621L393.292 7.52881H396.038L401.709 21.9672Z" fill="white"/>
<path d="M409.864 14.7879C410.357 14.7879 410.786 14.728 411.152 14.6082C411.518 14.4817 411.821 14.3053 412.061 14.079C412.307 13.846 412.49 13.5664 412.61 13.2402C412.73 12.9074 412.79 12.538 412.79 12.1319C412.79 11.7458 412.73 11.3963 412.61 11.0835C412.49 10.7706 412.311 10.5043 412.071 10.2847C411.831 10.065 411.528 9.8986 411.162 9.78544C410.796 9.66562 410.364 9.60571 409.864 9.60571H407.857V14.7879H409.864ZM409.864 7.52881C410.83 7.52881 411.665 7.64197 412.37 7.8683C413.076 8.09463 413.658 8.41082 414.118 8.81688C414.577 9.22295 414.916 9.70889 415.136 10.2747C415.362 10.8405 415.476 11.4596 415.476 12.1319C415.476 12.8309 415.359 13.4732 415.126 14.059C414.893 14.6382 414.544 15.1374 414.078 15.5568C413.612 15.9762 413.026 16.3023 412.32 16.5353C411.622 16.7683 410.803 16.8848 409.864 16.8848H407.857V21.9672H405.172V7.52881H409.864Z" fill="white"/>
<path d="M431.783 21.9672H429.347C429.094 21.9672 428.881 21.9007 428.708 21.7675C428.541 21.6344 428.385 21.438 428.238 21.1784L425.163 16.3256C425.083 16.1858 424.997 16.0727 424.904 15.9861C424.817 15.893 424.721 15.8197 424.614 15.7665C424.514 15.7066 424.398 15.6666 424.265 15.6467C424.138 15.6267 423.992 15.6167 423.825 15.6167H422.218V21.9672H419.532V7.52881H422.218V13.5797H423.576C423.849 13.5797 424.085 13.5331 424.285 13.4399C424.484 13.3468 424.671 13.1737 424.844 12.9207L428.009 8.24773C428.142 8.03472 428.298 7.86164 428.478 7.72851C428.658 7.59537 428.874 7.52881 429.127 7.52881H431.423L427.5 13.3201C427.333 13.5731 427.14 13.7828 426.92 13.9492C426.701 14.1156 426.458 14.2454 426.192 14.3386C426.591 14.4518 426.927 14.6315 427.2 14.8778C427.48 15.1174 427.746 15.4503 427.999 15.8763L431.783 21.9672Z" fill="white"/>
<path d="M438.129 9.66562V13.6696H443.181V15.7365H438.129V19.8204H444.539V21.9672H435.433V7.52881H444.539V9.66562H438.129Z" fill="white"/>
<path d="M459 9.73551H454.647V21.9672H451.961V9.73551H447.608V7.52881H459V9.73551Z" fill="white"/>
<path d="M180.552 106.64H172.524V122H170.196V104.804H180.552V106.64ZM192.405 109.844V122H190.269V113.744C190.269 113.584 190.277 113.412 190.293 113.228C190.309 113.044 190.329 112.86 190.353 112.676C190.281 112.836 190.209 112.984 190.137 113.12C190.065 113.256 189.989 113.38 189.909 113.492L184.041 121.472C183.953 121.6 183.841 121.724 183.705 121.844C183.577 121.956 183.433 122.012 183.273 122.012H181.977V109.856H184.125V118.112C184.125 118.264 184.117 118.432 184.101 118.616C184.085 118.792 184.065 118.972 184.041 119.156C184.113 119.004 184.185 118.864 184.257 118.736C184.329 118.6 184.401 118.476 184.473 118.364L190.341 110.384C190.429 110.256 190.541 110.136 190.677 110.024C190.813 109.904 190.961 109.844 191.121 109.844H192.405ZM205.826 111.476H200.09V122H197.942V109.844H205.826V111.476ZM220.444 109.844V122H218.308V113.744C218.308 113.584 218.316 113.412 218.332 113.228C218.348 113.044 218.368 112.86 218.392 112.676C218.32 112.836 218.248 112.984 218.176 113.12C218.104 113.256 218.028 113.38 217.948 113.492L212.08 121.472C211.992 121.6 211.88 121.724 211.744 121.844C211.616 121.956 211.472 122.012 211.312 122.012H210.016V109.856H212.164V118.112C212.164 118.264 212.156 118.432 212.14 118.616C212.124 118.792 212.104 118.972 212.08 119.156C212.152 119.004 212.224 118.864 212.296 118.736C212.368 118.6 212.44 118.476 212.512 118.364L218.38 110.384C218.468 110.256 218.58 110.136 218.716 110.024C218.852 109.904 219 109.844 219.16 109.844H220.444ZM234.116 114.596C234.116 114.1 234.044 113.648 233.9 113.24C233.764 112.824 233.56 112.468 233.288 112.172C233.024 111.868 232.7 111.636 232.316 111.476C231.932 111.308 231.496 111.224 231.008 111.224C229.984 111.224 229.172 111.524 228.572 112.124C227.98 112.716 227.612 113.54 227.468 114.596H234.116ZM235.844 120.296C235.58 120.616 235.264 120.896 234.896 121.136C234.528 121.368 234.132 121.56 233.708 121.712C233.292 121.864 232.86 121.976 232.412 122.048C231.964 122.128 231.52 122.168 231.08 122.168C230.24 122.168 229.464 122.028 228.752 121.748C228.048 121.46 227.436 121.044 226.916 120.5C226.404 119.948 226.004 119.268 225.716 118.46C225.428 117.652 225.284 116.724 225.284 115.676C225.284 114.828 225.412 114.036 225.668 113.3C225.932 112.564 226.308 111.928 226.796 111.392C227.284 110.848 227.88 110.424 228.584 110.12C229.288 109.808 230.08 109.652 230.96 109.652C231.688 109.652 232.36 109.776 232.976 110.024C233.6 110.264 234.136 110.616 234.584 111.08C235.04 111.536 235.396 112.104 235.652 112.784C235.908 113.456 236.036 114.224 236.036 115.088C236.036 115.424 236 115.648 235.928 115.76C235.856 115.872 235.72 115.928 235.52 115.928H227.396C227.42 116.696 227.524 117.364 227.708 117.932C227.9 118.5 228.164 118.976 228.5 119.36C228.836 119.736 229.236 120.02 229.7 120.212C230.164 120.396 230.684 120.488 231.26 120.488C231.796 120.488 232.256 120.428 232.64 120.308C233.032 120.18 233.368 120.044 233.648 119.9C233.928 119.756 234.16 119.624 234.344 119.504C234.536 119.376 234.7 119.312 234.836 119.312C235.012 119.312 235.148 119.38 235.244 119.516L235.844 120.296ZM250.948 109.844V122H248.8V116.312H242.968V122H240.82V109.844H242.968V114.692H248.8V109.844H250.948ZM266.932 109.844V122H264.796V113.744C264.796 113.584 264.804 113.412 264.82 113.228C264.836 113.044 264.856 112.86 264.88 112.676C264.808 112.836 264.736 112.984 264.664 113.12C264.592 113.256 264.516 113.38 264.436 113.492L258.568 121.472C258.48 121.6 258.368 121.724 258.232 121.844C258.104 121.956 257.96 122.012 257.8 122.012H256.504V109.856H258.652V118.112C258.652 118.264 258.644 118.432 258.628 118.616C258.612 118.792 258.592 118.972 258.568 119.156C258.64 119.004 258.712 118.864 258.784 118.736C258.856 118.6 258.928 118.476 259 118.364L264.868 110.384C264.956 110.256 265.068 110.136 265.204 110.024C265.34 109.904 265.488 109.844 265.648 109.844H266.932ZM281.432 109.844V122H279.296V116.84C278.256 117.112 277.276 117.284 276.356 117.356C275.444 117.42 274.644 117.348 273.956 117.14C273.276 116.932 272.736 116.568 272.336 116.048C271.944 115.52 271.748 114.792 271.748 113.864V109.844H273.896V113.54C273.896 114.124 274.012 114.584 274.244 114.92C274.484 115.256 274.832 115.488 275.288 115.616C275.744 115.744 276.308 115.78 276.98 115.724C277.652 115.668 278.424 115.536 279.296 115.328V109.844H281.432ZM295.116 114.596C295.116 114.1 295.044 113.648 294.9 113.24C294.764 112.824 294.56 112.468 294.288 112.172C294.024 111.868 293.7 111.636 293.316 111.476C292.932 111.308 292.496 111.224 292.008 111.224C290.984 111.224 290.172 111.524 289.572 112.124C288.98 112.716 288.612 113.54 288.468 114.596H295.116ZM296.844 120.296C296.58 120.616 296.264 120.896 295.896 121.136C295.528 121.368 295.132 121.56 294.708 121.712C294.292 121.864 293.86 121.976 293.412 122.048C292.964 122.128 292.52 122.168 292.08 122.168C291.24 122.168 290.464 122.028 289.752 121.748C289.048 121.46 288.436 121.044 287.916 120.5C287.404 119.948 287.004 119.268 286.716 118.46C286.428 117.652 286.284 116.724 286.284 115.676C286.284 114.828 286.412 114.036 286.668 113.3C286.932 112.564 287.308 111.928 287.796 111.392C288.284 110.848 288.88 110.424 289.584 110.12C290.288 109.808 291.08 109.652 291.96 109.652C292.688 109.652 293.36 109.776 293.976 110.024C294.6 110.264 295.136 110.616 295.584 111.08C296.04 111.536 296.396 112.104 296.652 112.784C296.908 113.456 297.036 114.224 297.036 115.088C297.036 115.424 297 115.648 296.928 115.76C296.856 115.872 296.72 115.928 296.52 115.928H288.396C288.42 116.696 288.524 117.364 288.708 117.932C288.9 118.5 289.164 118.976 289.5 119.36C289.836 119.736 290.236 120.02 290.7 120.212C291.164 120.396 291.684 120.488 292.26 120.488C292.796 120.488 293.256 120.428 293.64 120.308C294.032 120.18 294.368 120.044 294.648 119.9C294.928 119.756 295.16 119.624 295.344 119.504C295.536 119.376 295.7 119.312 295.836 119.312C296.012 119.312 296.148 119.38 296.244 119.516L296.844 120.296ZM310.28 112.004C310.216 112.092 310.152 112.16 310.088 112.208C310.024 112.256 309.936 112.28 309.824 112.28C309.704 112.28 309.572 112.232 309.428 112.136C309.284 112.032 309.104 111.92 308.888 111.8C308.68 111.68 308.42 111.572 308.108 111.476C307.804 111.372 307.428 111.32 306.98 111.32C306.38 111.32 305.852 111.428 305.396 111.644C304.94 111.852 304.556 112.156 304.244 112.556C303.94 112.956 303.708 113.44 303.548 114.008C303.396 114.576 303.32 115.212 303.32 115.916C303.32 116.652 303.404 117.308 303.572 117.884C303.74 118.452 303.976 118.932 304.28 119.324C304.592 119.708 304.964 120.004 305.396 120.212C305.836 120.412 306.328 120.512 306.872 120.512C307.392 120.512 307.82 120.452 308.156 120.332C308.492 120.204 308.768 120.064 308.984 119.912C309.208 119.76 309.392 119.624 309.536 119.504C309.688 119.376 309.836 119.312 309.98 119.312C310.156 119.312 310.292 119.38 310.388 119.516L310.988 120.296C310.724 120.624 310.424 120.904 310.088 121.136C309.752 121.368 309.388 121.564 308.996 121.724C308.612 121.876 308.208 121.988 307.784 122.06C307.36 122.132 306.928 122.168 306.488 122.168C305.728 122.168 305.02 122.028 304.364 121.748C303.716 121.468 303.152 121.064 302.672 120.536C302.192 120 301.816 119.344 301.544 118.568C301.272 117.792 301.136 116.908 301.136 115.916C301.136 115.012 301.26 114.176 301.508 113.408C301.764 112.64 302.132 111.98 302.612 111.428C303.1 110.868 303.696 110.432 304.4 110.12C305.112 109.808 305.928 109.652 306.848 109.652C307.704 109.652 308.456 109.792 309.104 110.072C309.76 110.344 310.34 110.732 310.844 111.236L310.28 112.004ZM322.82 110.444C322.932 110.268 323.08 110.124 323.264 110.012C323.448 109.9 323.644 109.844 323.852 109.844H325.52L322.364 114.476C322.172 114.772 321.972 115.016 321.764 115.208C321.556 115.392 321.3 115.536 320.996 115.64C321.38 115.744 321.704 115.908 321.968 116.132C322.232 116.348 322.468 116.628 322.676 116.972L325.868 122H324.38C323.996 122 323.7 121.936 323.492 121.808C323.284 121.68 323.104 121.496 322.952 121.256L320.588 117.476C320.212 116.852 319.648 116.54 318.896 116.54H317.588V122.012H315.44V109.844H317.588V115.1H318.74C319.38 115.1 319.88 114.828 320.24 114.284L322.82 110.444ZM340.45 109.844V122H338.314V113.744C338.314 113.584 338.322 113.412 338.338 113.228C338.354 113.044 338.374 112.86 338.398 112.676C338.326 112.836 338.254 112.984 338.182 113.12C338.11 113.256 338.034 113.38 337.954 113.492L332.086 121.472C331.998 121.6 331.886 121.724 331.75 121.844C331.622 121.956 331.478 122.012 331.318 122.012H330.022V109.856H332.17V118.112C332.17 118.264 332.162 118.432 332.146 118.616C332.13 118.792 332.11 118.972 332.086 119.156C332.158 119.004 332.23 118.864 332.302 118.736C332.374 118.6 332.446 118.476 332.518 118.364L338.386 110.384C338.474 110.256 338.586 110.136 338.722 110.024C338.858 109.904 339.006 109.844 339.166 109.844H340.45ZM354.123 114.596C354.123 114.1 354.051 113.648 353.907 113.24C353.771 112.824 353.567 112.468 353.295 112.172C353.031 111.868 352.707 111.636 352.323 111.476C351.939 111.308 351.503 111.224 351.015 111.224C349.991 111.224 349.179 111.524 348.579 112.124C347.987 112.716 347.619 113.54 347.475 114.596H354.123ZM355.851 120.296C355.587 120.616 355.271 120.896 354.903 121.136C354.535 121.368 354.139 121.56 353.715 121.712C353.299 121.864 352.867 121.976 352.419 122.048C351.971 122.128 351.527 122.168 351.087 122.168C350.247 122.168 349.471 122.028 348.759 121.748C348.055 121.46 347.443 121.044 346.923 120.5C346.411 119.948 346.011 119.268 345.723 118.46C345.435 117.652 345.291 116.724 345.291 115.676C345.291 114.828 345.419 114.036 345.675 113.3C345.939 112.564 346.315 111.928 346.803 111.392C347.291 110.848 347.887 110.424 348.591 110.12C349.295 109.808 350.087 109.652 350.967 109.652C351.695 109.652 352.367 109.776 352.983 110.024C353.607 110.264 354.143 110.616 354.591 111.08C355.047 111.536 355.403 112.104 355.659 112.784C355.915 113.456 356.043 114.224 356.043 115.088C356.043 115.424 356.007 115.648 355.935 115.76C355.863 115.872 355.727 115.928 355.527 115.928H347.403C347.427 116.696 347.531 117.364 347.715 117.932C347.907 118.5 348.171 118.976 348.507 119.36C348.843 119.736 349.243 120.02 349.707 120.212C350.171 120.396 350.691 120.488 351.267 120.488C351.803 120.488 352.263 120.428 352.647 120.308C353.039 120.18 353.375 120.044 353.655 119.9C353.935 119.756 354.167 119.624 354.351 119.504C354.543 119.376 354.707 119.312 354.843 119.312C355.019 119.312 355.155 119.38 355.251 119.516L355.851 120.296ZM379.231 111.476H374.563V122H372.427V111.476H367.759V109.844H379.231V111.476ZM388.06 109.652C388.948 109.652 389.748 109.8 390.46 110.096C391.172 110.392 391.78 110.812 392.284 111.356C392.788 111.9 393.172 112.56 393.436 113.336C393.708 114.104 393.844 114.964 393.844 115.916C393.844 116.876 393.708 117.74 393.436 118.508C393.172 119.276 392.788 119.932 392.284 120.476C391.78 121.02 391.172 121.44 390.46 121.736C389.748 122.024 388.948 122.168 388.06 122.168C387.164 122.168 386.356 122.024 385.636 121.736C384.924 121.44 384.316 121.02 383.812 120.476C383.308 119.932 382.92 119.276 382.648 118.508C382.384 117.74 382.252 116.876 382.252 115.916C382.252 114.964 382.384 114.104 382.648 113.336C382.92 112.56 383.308 111.9 383.812 111.356C384.316 110.812 384.924 110.392 385.636 110.096C386.356 109.8 387.164 109.652 388.06 109.652ZM388.06 120.5C389.26 120.5 390.156 120.1 390.748 119.3C391.34 118.492 391.636 117.368 391.636 115.928C391.636 114.48 391.34 113.352 390.748 112.544C390.156 111.736 389.26 111.332 388.06 111.332C387.452 111.332 386.92 111.436 386.464 111.644C386.016 111.852 385.64 112.152 385.336 112.544C385.04 112.936 384.816 113.42 384.664 113.996C384.52 114.564 384.448 115.208 384.448 115.928C384.448 117.368 384.744 118.492 385.336 119.3C385.936 120.1 386.844 120.5 388.06 120.5ZM403.381 120.5C404.181 120.5 404.813 120.316 405.277 119.948C405.741 119.572 405.973 119.06 405.973 118.412C405.973 118.124 405.929 117.864 405.841 117.632C405.753 117.392 405.609 117.184 405.409 117.008C405.209 116.832 404.941 116.696 404.605 116.6C404.277 116.504 403.873 116.456 403.393 116.456H400.765V120.5H403.381ZM400.765 111.284V115.1H403.105C403.457 115.1 403.781 115.052 404.077 114.956C404.381 114.852 404.641 114.712 404.857 114.536C405.073 114.352 405.241 114.136 405.361 113.888C405.481 113.632 405.541 113.352 405.541 113.048C405.541 112.824 405.501 112.608 405.421 112.4C405.341 112.184 405.205 111.996 405.013 111.836C404.821 111.668 404.569 111.536 404.257 111.44C403.945 111.336 403.561 111.284 403.105 111.284H400.765ZM403.165 109.844C403.917 109.844 404.561 109.92 405.097 110.072C405.633 110.224 406.073 110.432 406.417 110.696C406.761 110.952 407.013 111.256 407.173 111.608C407.333 111.96 407.413 112.336 407.413 112.736C407.413 113 407.377 113.276 407.305 113.564C407.233 113.852 407.105 114.128 406.921 114.392C406.745 114.656 406.501 114.896 406.189 115.112C405.885 115.32 405.501 115.484 405.037 115.604C405.965 115.764 406.681 116.088 407.185 116.576C407.689 117.056 407.941 117.692 407.941 118.484C407.941 119.076 407.821 119.592 407.581 120.032C407.349 120.464 407.025 120.828 406.609 121.124C406.201 121.42 405.721 121.64 405.169 121.784C404.617 121.928 404.025 122 403.393 122H398.713V109.844H403.165ZM419.367 116.528C418.383 116.56 417.543 116.64 416.847 116.768C416.159 116.888 415.595 117.048 415.155 117.248C414.723 117.448 414.407 117.684 414.207 117.956C414.015 118.228 413.919 118.532 413.919 118.868C413.919 119.188 413.971 119.464 414.075 119.696C414.179 119.928 414.319 120.12 414.495 120.272C414.679 120.416 414.891 120.524 415.131 120.596C415.379 120.66 415.643 120.692 415.923 120.692C416.299 120.692 416.643 120.656 416.955 120.584C417.267 120.504 417.559 120.392 417.831 120.248C418.111 120.104 418.375 119.932 418.623 119.732C418.879 119.532 419.127 119.304 419.367 119.048V116.528ZM412.467 111.56C413.139 110.912 413.863 110.428 414.639 110.108C415.415 109.788 416.275 109.628 417.219 109.628C417.899 109.628 418.503 109.74 419.031 109.964C419.559 110.188 420.003 110.5 420.363 110.9C420.723 111.3 420.995 111.784 421.179 112.352C421.363 112.92 421.455 113.544 421.455 114.224V122H420.507C420.299 122 420.139 121.968 420.027 121.904C419.915 121.832 419.827 121.696 419.763 121.496L419.523 120.344C419.203 120.64 418.891 120.904 418.587 121.136C418.283 121.36 417.963 121.552 417.627 121.712C417.291 121.864 416.931 121.98 416.547 122.06C416.171 122.148 415.751 122.192 415.287 122.192C414.815 122.192 414.371 122.128 413.955 122C413.539 121.864 413.175 121.664 412.863 121.4C412.559 121.136 412.315 120.804 412.131 120.404C411.955 119.996 411.867 119.516 411.867 118.964C411.867 118.484 411.999 118.024 412.263 117.584C412.527 117.136 412.955 116.74 413.547 116.396C414.139 116.052 414.911 115.772 415.863 115.556C416.815 115.332 417.983 115.204 419.367 115.172V114.224C419.367 113.28 419.163 112.568 418.755 112.088C418.347 111.6 417.751 111.356 416.967 111.356C416.439 111.356 415.995 111.424 415.635 111.56C415.283 111.688 414.975 111.836 414.711 112.004C414.455 112.164 414.231 112.312 414.039 112.448C413.855 112.576 413.671 112.64 413.487 112.64C413.343 112.64 413.219 112.604 413.115 112.532C413.011 112.452 412.923 112.356 412.851 112.244L412.467 111.56ZM429.017 119.072C429.409 119.6 429.837 119.972 430.301 120.188C430.765 120.404 431.285 120.512 431.861 120.512C432.997 120.512 433.869 120.108 434.477 119.3C435.085 118.492 435.389 117.34 435.389 115.844C435.389 115.052 435.317 114.372 435.173 113.804C435.037 113.236 434.837 112.772 434.573 112.412C434.309 112.044 433.985 111.776 433.601 111.608C433.217 111.44 432.781 111.356 432.293 111.356C431.597 111.356 430.985 111.516 430.457 111.836C429.937 112.156 429.457 112.608 429.017 113.192V119.072ZM428.909 111.728C429.421 111.096 430.013 110.588 430.685 110.204C431.357 109.82 432.125 109.628 432.989 109.628C433.693 109.628 434.329 109.764 434.897 110.036C435.465 110.3 435.949 110.696 436.349 111.224C436.749 111.744 437.057 112.392 437.273 113.168C437.489 113.944 437.597 114.836 437.597 115.844C437.597 116.74 437.477 117.576 437.237 118.352C436.997 119.12 436.649 119.788 436.193 120.356C435.745 120.916 435.193 121.36 434.537 121.688C433.889 122.008 433.157 122.168 432.341 122.168C431.597 122.168 430.957 122.044 430.421 121.796C429.893 121.54 429.425 121.188 429.017 120.74V126.116H426.869V109.844H428.153C428.457 109.844 428.645 109.992 428.717 110.288L428.909 111.728ZM447.127 120.44C447.559 120.44 447.931 120.388 448.243 120.284C448.563 120.172 448.827 120.02 449.035 119.828C449.243 119.628 449.399 119.396 449.503 119.132C449.607 118.868 449.659 118.58 449.659 118.268C449.659 117.98 449.615 117.712 449.527 117.464C449.439 117.208 449.291 116.984 449.083 116.792C448.883 116.6 448.619 116.448 448.291 116.336C447.963 116.224 447.563 116.168 447.091 116.168H444.499V120.44H447.127ZM447.091 114.608C447.931 114.608 448.635 114.708 449.203 114.908C449.779 115.108 450.239 115.376 450.583 115.712C450.935 116.048 451.187 116.436 451.339 116.876C451.491 117.316 451.567 117.772 451.567 118.244C451.567 118.788 451.471 119.292 451.279 119.756C451.087 120.212 450.803 120.608 450.427 120.944C450.051 121.272 449.587 121.532 449.035 121.724C448.483 121.908 447.847 122 447.127 122H442.459V109.844H444.499V114.608H447.091ZM456.379 109.844V122H454.243V109.844H456.379Z" fill="white"/>
</g>
<defs>
<clipPath id="clip0">
<rect width="459" height="126" fill="white"/>
</clipPath>
</defs>
</svg>
