<svg width="64" height="40" viewBox="0 0 64 40" fill="none" xmlns="http://www.w3.org/2000/svg">
<rect width="64" height="40" rx="4" fill="white"/>
<g clip-path="url(#clip0)">
<path d="M51.9616 34.4836V34.5642H52.0366C52.0532 34.5642 52.0675 34.5603 52.0777 34.554C52.0872 34.5477 52.0927 34.5368 52.0927 34.5235C52.0927 34.5102 52.0872 34.5 52.0777 34.4937C52.0675 34.4867 52.0532 34.4836 52.0366 34.4836H51.9616ZM52.0374 34.4272C52.0761 34.4272 52.1062 34.4358 52.1275 34.453C52.1488 34.4703 52.1591 34.4937 52.1591 34.5235C52.1591 34.5485 52.1512 34.5689 52.1338 34.5853C52.1172 34.601 52.0935 34.6111 52.0619 34.615L52.1615 34.7285H52.084L51.9916 34.6158H51.9616V34.7285H51.8968V34.4272H52.0374ZM52.0177 34.8326C52.0532 34.8326 52.0864 34.8256 52.1164 34.8122C52.1472 34.7989 52.1741 34.7809 52.197 34.7582C52.2199 34.7356 52.2381 34.7089 52.2515 34.6776C52.2642 34.6471 52.2713 34.6143 52.2713 34.579C52.2713 34.5438 52.2642 34.511 52.2515 34.4804C52.2381 34.4499 52.2199 34.4225 52.197 34.3998C52.1741 34.3771 52.1472 34.3591 52.1164 34.3458C52.0864 34.3333 52.0532 34.327 52.0177 34.327C51.9821 34.327 51.9482 34.3333 51.9174 34.3458C51.8858 34.3591 51.8581 34.3771 51.8352 34.3998C51.8123 34.4225 51.7941 34.4499 51.7815 34.4804C51.7681 34.511 51.7617 34.5438 51.7617 34.579C51.7617 34.6143 51.7681 34.6471 51.7815 34.6776C51.7941 34.7089 51.8123 34.7356 51.8352 34.7582C51.8581 34.7809 51.8858 34.7989 51.9174 34.8122C51.9482 34.8256 51.9821 34.8326 52.0177 34.8326ZM52.0177 34.2543C52.0643 34.2543 52.107 34.2629 52.148 34.2801C52.1883 34.2965 52.2231 34.32 52.2539 34.3497C52.2839 34.3787 52.3076 34.4131 52.325 34.453C52.3424 34.4922 52.3511 34.5344 52.3511 34.579C52.3511 34.6236 52.3424 34.6659 52.325 34.705C52.3076 34.7442 52.2839 34.7786 52.2539 34.8083C52.2231 34.8373 52.1883 34.8608 52.148 34.878C52.107 34.8952 52.0643 34.9038 52.0177 34.9038C51.9703 34.9038 51.9268 34.8952 51.8858 34.878C51.8447 34.8608 51.8091 34.8373 51.7791 34.8083C51.7491 34.7786 51.7254 34.7442 51.708 34.705C51.6906 34.6659 51.682 34.6236 51.682 34.579C51.682 34.5344 51.6906 34.4922 51.708 34.453C51.7254 34.4131 51.7491 34.3787 51.7791 34.3497C51.8091 34.32 51.8447 34.2965 51.8858 34.2801C51.9268 34.2629 51.9703 34.2543 52.0177 34.2543ZM21.2397 33.0937C21.2397 32.5193 21.6197 32.0474 22.2406 32.0474C22.8339 32.0474 23.2344 32.4989 23.2344 33.0937C23.2344 33.6885 22.8339 34.14 22.2406 34.14C21.6197 34.14 21.2397 33.6681 21.2397 33.0937ZM23.9106 33.0937V31.4597H23.1933V31.8564C22.9658 31.5622 22.6206 31.3775 22.1513 31.3775C21.2263 31.3775 20.5011 32.0959 20.5011 33.0937C20.5011 34.0923 21.2263 34.8099 22.1513 34.8099C22.6206 34.8099 22.9658 34.6252 23.1933 34.331V34.7277H23.9106V33.0937ZM48.15 33.0937C48.15 32.5193 48.53 32.0474 49.1509 32.0474C49.7449 32.0474 50.1447 32.4989 50.1447 33.0937C50.1447 33.6885 49.7449 34.14 49.1509 34.14C48.53 34.14 48.15 33.6681 48.15 33.0937ZM50.8217 33.0937V30.1473H50.1036V31.8564C49.8761 31.5622 49.5309 31.3775 49.0616 31.3775C48.1366 31.3775 47.4114 32.0959 47.4114 33.0937C47.4114 34.0923 48.1366 34.8099 49.0616 34.8099C49.5309 34.8099 49.8761 34.6252 50.1036 34.331V34.7277H50.8217V33.0937ZM32.8143 32.0137C33.2765 32.0137 33.5735 32.3009 33.6493 32.8065H31.9375C32.0141 32.3346 32.3032 32.0137 32.8143 32.0137ZM32.8285 31.3775C31.8616 31.3775 31.1854 32.0748 31.1854 33.0937C31.1854 34.133 31.8893 34.8099 32.8767 34.8099C33.3736 34.8099 33.8286 34.687 34.2292 34.3521L33.8776 33.8254C33.6011 34.0438 33.2488 34.1674 32.9178 34.1674C32.4557 34.1674 32.0346 33.9553 31.9311 33.3668H34.3808C34.3879 33.2784 34.3951 33.1892 34.3951 33.0937C34.3879 32.0748 33.7528 31.3775 32.8285 31.3775ZM41.4898 33.0937C41.4898 32.5193 41.8697 32.0474 42.4907 32.0474C43.0839 32.0474 43.4844 32.4989 43.4844 33.0937C43.4844 33.6885 43.0839 34.14 42.4907 34.14C41.8697 34.14 41.4898 33.6681 41.4898 33.0937ZM44.1607 33.0937V31.4597H43.4434V31.8564C43.2151 31.5622 42.8706 31.3775 42.4014 31.3775C41.4763 31.3775 40.7511 32.0959 40.7511 33.0937C40.7511 34.0923 41.4763 34.8099 42.4014 34.8099C42.8706 34.8099 43.2151 34.6252 43.4434 34.331V34.7277H44.1607V33.0937ZM37.4388 33.0937C37.4388 34.0852 38.1356 34.8099 39.1989 34.8099C39.6957 34.8099 40.0267 34.7003 40.3854 34.4202L40.041 33.8458C39.7716 34.0375 39.4888 34.14 39.1775 34.14C38.6048 34.133 38.1837 33.7229 38.1837 33.0937C38.1837 32.4645 38.6048 32.0544 39.1775 32.0474C39.4888 32.0474 39.7716 32.1499 40.041 32.3416L40.3854 31.7672C40.0267 31.4871 39.6957 31.3775 39.1989 31.3775C38.1356 31.3775 37.4388 32.1022 37.4388 33.0937ZM46.687 31.3775C46.273 31.3775 46.0037 31.5692 45.8172 31.8564V31.4597H45.1062V34.7277H45.8243V32.8957C45.8243 32.3549 46.059 32.0544 46.5282 32.0544C46.6735 32.0544 46.8252 32.0748 46.9769 32.1366L47.1981 31.4667C47.0393 31.4049 46.8323 31.3775 46.687 31.3775ZM27.4583 31.7195C27.1131 31.4941 26.6376 31.3775 26.113 31.3775C25.2772 31.3775 24.7393 31.7743 24.7393 32.4238C24.7393 32.9567 25.1398 33.2854 25.8776 33.388L26.2165 33.4357C26.6099 33.4905 26.7956 33.593 26.7956 33.7777C26.7956 34.0304 26.5333 34.1744 26.0435 34.1744C25.5466 34.1744 25.188 34.0171 24.9462 33.8325L24.6081 34.3857C25.0015 34.6729 25.4984 34.8099 26.0364 34.8099C26.9891 34.8099 27.5413 34.3654 27.5413 33.7432C27.5413 33.1688 27.1068 32.8683 26.3887 32.7658L26.0506 32.7173C25.7402 32.6766 25.4913 32.6155 25.4913 32.3964C25.4913 32.157 25.7259 32.0137 26.1193 32.0137C26.5404 32.0137 26.948 32.171 27.1479 32.2939L27.4583 31.7195ZM36.7136 31.3775C36.2997 31.3775 36.0303 31.5692 35.8446 31.8564V31.4597H35.1337V34.7277H35.851V32.8957C35.851 32.3549 36.0856 32.0544 36.5548 32.0544C36.7002 32.0544 36.8519 32.0748 37.0035 32.1366L37.2247 31.4667C37.0659 31.4049 36.859 31.3775 36.7136 31.3775ZM30.5921 31.4597H29.419V30.4681H28.6938V31.4597H28.0247V32.1092H28.6938V33.6C28.6938 34.3584 28.9909 34.8099 29.8393 34.8099C30.1506 34.8099 30.5092 34.7144 30.7367 34.5571L30.5297 33.9483C30.3157 34.0711 30.081 34.133 29.8946 34.133C29.536 34.133 29.419 33.9138 29.419 33.5859V32.1092H30.5921V31.4597ZM19.8667 34.7277V32.6766C19.8667 31.9042 19.3698 31.3845 18.5688 31.3775C18.1478 31.3705 17.7133 31.5004 17.4091 31.959C17.1816 31.5966 16.823 31.3775 16.319 31.3775C15.9667 31.3775 15.6222 31.48 15.3528 31.8627V31.4597H14.6348V34.7277H15.3592V32.9161C15.3592 32.3487 15.6767 32.0474 16.1673 32.0474C16.6437 32.0474 16.8846 32.3549 16.8846 32.909V34.7277H17.6098V32.9161C17.6098 32.3487 17.9408 32.0474 18.4171 32.0474C18.9069 32.0474 19.1415 32.3549 19.1415 32.909V34.7277H19.8667Z" fill="#231F20"/>
<path d="M52.4041 23.8589V23.3815H52.2785L52.1332 23.7094L51.9886 23.3815H51.8622V23.8589H51.9515V23.4989L52.0874 23.8096H52.1798L52.3157 23.4981V23.8589H52.4041ZM51.6071 23.8589V23.4629H51.7682V23.3823H51.3574V23.4629H51.5186V23.8589H51.6071Z" fill="#EB001B"/>
<path d="M38.1212 25.9124H27.25V6.55762H38.1212V25.9124Z" fill="#FF5F00"/>
<path d="M27.9468 16.2338C27.9468 12.3075 29.8025 8.81019 32.6922 6.55635C30.579 4.90824 27.9121 3.92454 25.0137 3.92454C18.152 3.92454 12.5898 9.43547 12.5898 16.2338C12.5898 23.032 18.152 28.543 25.0137 28.543C27.9121 28.543 30.579 27.5593 32.6922 25.9111C29.8025 23.6573 27.9468 20.16 27.9468 16.2338Z" fill="#EB001B"/>
<path d="M52.7828 16.2338C52.7828 23.032 47.2207 28.543 40.359 28.543C37.4606 28.543 34.7936 27.5593 32.6797 25.9111C35.5702 23.6573 37.4258 20.16 37.4258 16.2338C37.4258 12.3075 35.5702 8.81019 32.6797 6.55635C34.7936 4.90824 37.4606 3.92454 40.359 3.92454C47.2207 3.92454 52.7828 9.43547 52.7828 16.2338Z" fill="#F79E1B"/>
</g>
<defs>
<clipPath id="clip0">
<rect width="40.2058" height="30.9836" fill="white" transform="translate(12.5742 3.93457)"/>
</clipPath>
</defs>
</svg>
