<svg width="64" height="40" viewBox="0 0 64 40" fill="none" xmlns="http://www.w3.org/2000/svg">
<rect width="64" height="40" rx="4" fill="white"/>
<g clip-path="url(#clip0)">
<path d="M28.5903 28.8484H24.2051L26.9479 11.3228H31.3329L28.5903 28.8484Z" fill="#00579F"/>
<path d="M44.4886 11.7515C43.6236 11.3969 42.2517 11.0054 40.5553 11.0054C36.2247 11.0054 33.1752 13.3917 33.1565 16.8035C33.1205 19.3207 35.3399 20.7188 36.9998 21.5581C38.6964 22.4157 39.2731 22.9755 39.2731 23.74C39.2558 24.9141 37.9022 25.4553 36.6396 25.4553C34.8888 25.4553 33.9507 25.1762 32.5251 24.523L31.9476 24.243L31.334 28.1771C32.3625 28.6614 34.2574 29.091 36.2247 29.1099C40.8261 29.1099 43.8217 26.7605 43.8572 23.1247C43.8747 21.1296 42.7028 19.6009 40.1762 18.3517C38.6424 17.5499 37.7031 17.0091 37.7031 16.1887C37.7211 15.4428 38.4976 14.6788 40.229 14.6788C41.6546 14.6414 42.702 14.9955 43.4955 15.3499L43.8922 15.536L44.4886 11.7515Z" fill="#00579F"/>
<path d="M50.316 22.6397C50.6771 21.6329 52.0668 17.7362 52.0668 17.7362C52.0485 17.7736 52.4272 16.7107 52.6437 16.0583L52.9502 17.5684C52.9502 17.5684 53.7806 21.7634 53.961 22.6397C53.2756 22.6397 51.1821 22.6397 50.316 22.6397ZM55.729 11.3228H52.337C51.291 11.3228 50.4963 11.6394 50.045 12.7769L43.5312 28.8481H48.1326C48.1326 28.8481 48.8901 26.6851 49.0529 26.2192C49.5577 26.2192 54.0339 26.2192 54.6832 26.2192C54.8091 26.8345 55.2065 28.8481 55.2065 28.8481H59.2668L55.729 11.3228Z" fill="#00579F"/>
<path d="M20.5436 11.3228L16.249 23.2736L15.7797 20.8498C14.9857 18.0531 12.4956 15.0145 9.7168 13.5037L13.6505 28.8298H18.2878L25.1807 11.3228H20.5436Z" fill="#00579F"/>
<path d="M12.2604 11.3228H5.20499L5.13281 11.6769C10.6365 13.1312 14.2815 16.6369 15.779 20.8505L14.2453 12.7959C13.9928 11.6766 13.2168 11.3597 12.2604 11.3228Z" fill="#FAA61A"/>
</g>
<defs>
<clipPath id="clip0">
<rect width="54.1343" height="18.1045" fill="white" transform="translate(5.13281 11.0054)"/>
</clipPath>
</defs>
</svg>
