<svg width="250" height="250" viewBox="0 0 250 250" fill="none" xmlns="http://www.w3.org/2000/svg">
<path d="M125.154 193.137C128.648 193.137 166.918 154.603 166.918 107.069C166.918 59.5343 128.648 21 125.154 21C121.66 21 83.3893 59.5343 83.3893 107.069C83.3893 154.603 121.66 193.137 125.154 193.137Z" fill="#0F8CE5"/>
<path d="M200.553 62.761C192.443 65.0382 183.81 68.2444 175.327 72.7062C172.961 65.2597 170.011 58.3141 166.81 51.991C177.57 43.3661 186.448 38.9227 187.855 39.3097C189.317 39.7134 195.251 48.8286 200.553 62.761Z" fill="#0F8CE5"/>
<path d="M61.0864 39.3106C62.5274 38.9114 71.9082 43.6384 83.1038 52.7799C80.0381 58.9296 77.2103 65.6537 74.9399 72.8428C66.035 68.1315 56.9602 64.8071 48.4836 62.493C53.7585 48.7121 59.6317 39.7116 61.0864 39.3106Z" fill="#0F8CE5"/>
<path d="M5.02893 69.3602C7.00479 67.3242 41.6217 66.5095 72.0924 83.4575C70.4397 90.9629 69.4662 98.8687 69.4662 107.069C69.4662 134.685 80.5077 158.965 91.3506 175.846C95.2234 181.875 99.1793 187.132 102.811 191.452C83.3893 189.551 55.0092 181.72 34.5609 160.65C1.9408 127.038 2.55831 71.9059 5.02893 69.3602Z" fill="#0F8CE5"/>
<path d="M180.838 107.069C180.838 98.814 179.852 90.8575 178.179 83.3075C208.583 66.5147 243.001 67.3306 244.971 69.3605C247.442 71.9062 248.059 127.038 215.439 160.65C195.11 181.597 166.918 189.551 147.525 191.414C151.148 187.101 155.092 181.858 158.954 175.846C169.797 158.965 180.838 134.685 180.838 107.069Z" fill="#0F8CE5"/>
<path d="M125.203 207.708C58.0459 207.708 33.6183 179.923 26.612 169.005C25.8403 167.802 23.9153 168.215 23.9105 169.657C23.8864 176.831 25.4821 190.305 36.4064 200.311C54.0265 216.448 86.8719 229 125.203 229C163.535 229 196.38 216.447 214 200.31C224.924 190.304 226.52 176.83 226.496 169.656C226.491 168.214 224.566 167.801 223.795 169.004C216.788 179.922 192.361 207.708 125.203 207.708Z" fill="#0F8CE5"/>
</svg>
