<svg width="242" height="208" viewBox="0 0 242 208" fill="none" xmlns="http://www.w3.org/2000/svg">
<path d="M121.154 172.137C124.648 172.137 162.918 133.603 162.918 86.0687C162.918 38.5343 124.648 0 121.154 0C117.66 0 79.3893 38.5343 79.3893 86.0687C79.3893 133.603 117.66 172.137 121.154 172.137Z" fill="#0F8CE5"/>
<path d="M196.553 41.761C188.443 44.0382 179.81 47.2444 171.327 51.7062C168.961 44.2597 166.011 37.3141 162.81 30.991C173.57 22.3661 182.448 17.9227 183.855 18.3097C185.317 18.7134 191.251 27.8286 196.553 41.761Z" fill="#0F8CE5"/>
<path d="M57.0864 18.3106C58.5274 17.9114 67.9082 22.6384 79.1038 31.7799C76.0381 37.9296 73.2103 44.6537 70.9399 51.8428C62.035 47.1315 52.9602 43.8071 44.4836 41.493C49.7585 27.7121 55.6317 18.7116 57.0864 18.3106Z" fill="#0F8CE5"/>
<path d="M1.02893 48.3602C3.00479 46.3242 37.6217 45.5095 68.0924 62.4575C66.4397 69.9629 65.4662 77.8687 65.4662 86.0687C65.4662 113.685 76.5077 137.965 87.3506 154.846C91.2234 160.875 95.1793 166.132 98.8106 170.452C79.3893 168.551 51.0092 160.72 30.5609 139.65C-2.0592 106.038 -1.44169 50.9059 1.02893 48.3602Z" fill="#0F8CE5"/>
<path d="M176.838 86.0687C176.838 77.814 175.852 69.8575 174.179 62.3075C204.583 45.5147 239.001 46.3306 240.971 48.3605C243.442 50.9062 244.059 106.038 211.439 139.65C191.11 160.597 162.918 168.551 143.525 170.414C147.148 166.101 151.092 160.858 154.954 154.846C165.797 137.965 176.838 113.685 176.838 86.0687Z" fill="#0F8CE5"/>
<path d="M121.203 186.708C54.0459 186.708 29.6183 158.923 22.612 148.005C21.8403 146.802 19.9153 147.215 19.9105 148.657C19.8864 155.831 21.4821 169.305 32.4064 179.311C50.0265 195.448 82.8719 208 121.203 208C159.535 208 192.38 195.447 210 179.31C220.924 169.304 222.52 155.83 222.496 148.656C222.491 147.214 220.566 146.801 219.795 148.004C212.788 158.922 188.361 186.708 121.203 186.708Z" fill="#0F8CE5"/>
</svg>
