<svg width="51" height="66" viewBox="0 0 51 66" fill="none" xmlns="http://www.w3.org/2000/svg">
<g clip-path="url(#clip0)">
<path d="M27.4587 63.7457C35.4509 55.3015 42.4856 45.7339 46.2893 38.1439C48.3888 33.9508 49.5509 30.4087 49.9563 26.9609C50.0715 25.9816 50.0452 23.6679 49.9006 22.5C49.4148 18.417 48.0858 14.8275 45.83 11.4805C44.1549 8.99901 41.8862 6.73601 39.3405 4.99541C35.8376 2.60022 31.927 1.22297 27.4464 0.815075C26.5007 0.730027 23.7783 0.77606 22.8249 0.897794C20.5245 1.18606 18.6605 1.64582 16.6637 2.4146C13.017 3.8222 9.59901 6.23043 7.03605 9.19862C4.01432 12.6963 2.07118 16.8623 1.36421 21.337C1.12399 22.8723 1.06249 23.6846 1.08137 25.348C1.10066 27.0467 1.17956 27.7668 1.5262 29.376C2.76866 35.1342 6.60287 42.2393 12.9051 50.4708C15.7049 54.1242 19.1508 58.1736 22.3977 61.6052C23.1851 62.4382 25.9704 65.2599 26.0058 65.2595C26.0209 65.2593 26.675 64.5814 27.4587 63.7457Z" fill="#0F8CE5"/>
<path d="M26.0192 34.5172C26.4524 34.5172 31.1966 29.7004 31.1966 23.7586C31.1966 17.8168 26.4524 13 26.0192 13C25.5861 13 20.8418 17.8168 20.8418 23.7586C20.8418 29.7004 25.5861 34.5172 26.0192 34.5172Z" fill="white"/>
<path d="M35.3667 18.2202C34.3613 18.5049 33.2911 18.9056 32.2395 19.4634C31.9462 18.5326 31.5805 17.6644 31.1836 16.874C32.5176 15.7958 33.6181 15.2404 33.7925 15.2888C33.9737 15.3393 34.7094 16.4787 35.3667 18.2202Z" fill="white"/>
<path d="M18.078 15.2888C18.2566 15.2389 19.4195 15.8298 20.8074 16.9725C20.4273 17.7412 20.0768 18.5817 19.7953 19.4803C18.6914 18.8914 17.5664 18.4759 16.5156 18.1866C17.1695 16.464 17.8976 15.3389 18.078 15.2888Z" fill="white"/>
<path d="M11.1276 19.0451C11.3725 18.7906 15.6638 18.6888 19.4412 20.8073C19.2363 21.7455 19.1157 22.7337 19.1157 23.7587C19.1157 27.2107 20.4844 30.2457 21.8286 32.3558C22.3087 33.1094 22.7991 33.7665 23.2492 34.3066C20.8416 34.069 17.3235 33.09 14.7885 30.4563C10.7447 26.2548 10.8213 19.3633 11.1276 19.0451Z" fill="white"/>
<path d="M32.9227 23.7587C32.9227 22.7268 32.8004 21.7323 32.593 20.7885C36.3622 18.6894 40.6288 18.7914 40.873 19.0451C41.1793 19.3633 41.2559 26.2548 37.212 30.4563C34.6919 33.0747 31.1971 34.069 28.793 34.3019C29.2421 33.7628 29.731 33.1073 30.2097 32.3557C31.5539 30.2457 32.9227 27.2107 32.9227 23.7587Z" fill="white"/>
<path d="M26.0257 36.3386C17.7004 36.3386 14.6722 32.8654 13.8037 31.5006C13.708 31.3503 13.4694 31.4019 13.4688 31.5821C13.4658 32.4789 13.6636 34.1632 15.0179 35.4139C17.2022 37.4311 21.2739 39 26.0257 39C30.7776 39 34.8493 37.431 37.0336 35.4137C38.3879 34.1631 38.5857 32.4787 38.5827 31.582C38.5821 31.4018 38.3435 31.3502 38.2478 31.5005C37.3793 32.8653 34.3511 36.3386 26.0257 36.3386Z" fill="white"/>
</g>
<defs>
<clipPath id="clip0">
<rect width="49" height="64.5247" fill="white" transform="translate(50.5039 64.9915) rotate(179.35)"/>
</clipPath>
</defs>
</svg>
