<svg width="491" height="490" viewBox="0 0 491 490" fill="none" xmlns="http://www.w3.org/2000/svg">
<path d="M376.799 321.5L448.199 368C449.599 369 449.199 370.6 448.799 371.1L410.199 430.2C393.699 453.8 367.199 451.2 354.099 443.3C280.899 399.5 143.099 301.6 46.2988 132.4C35.0988 112.9 41.8988 87.6 61.3988 76.1L120.399 41.2C121.599 40.5 122.899 41 123.499 42L166.999 115.2C167.599 116.8 167.199 117.6 166.199 118.2L163.599 119.7C152.899 126 145.599 136.7 143.499 149C141.399 161.2 144.799 173.7 152.799 183.2C186.599 223.3 240.899 282.7 307.399 337.9C314.999 344.2 324.499 347.6 334.299 347.6C348.699 347.6 361.899 340.4 369.699 328.5L373.699 322.3C374.299 321.3 375.899 320.8 376.799 321.5V321.5ZM375.199 490C403.199 490 429.099 476 444.399 452.6L482.999 393.5C489.299 383.9 491.499 372.4 489.099 361.1C486.699 349.8 480.099 340.2 470.499 333.9L399.099 287.4C392.099 282.8 383.899 280.4 375.599 280.4C360.999 280.4 347.499 287.7 339.499 299.9L335.499 306.1C335.199 306.6 334.199 306.7 333.899 306.5C271.499 255.3 216.699 195.8 183.999 156.9C183.899 156.8 183.399 155.6 184.399 154.9L186.999 153.4C196.899 147.5 203.899 138.2 206.699 127C209.599 115.9 207.899 104.3 201.999 94.4L158.499 21.2C142.099 -4.1 113.499 -2.9 99.4988 6.1L40.4988 41C1.89881 63.8 -11.4012 114 10.7988 152.7C112.399 330.1 256.399 433 333.299 478.5C345.999 486 360.499 490 375.199 490V490Z" fill="black"/>
<path d="M466.799 242.4C478.099 242.4 487.199 233.3 487.199 222C487.199 105.2 392.199 10.2 275.399 10.2C264.099 10.2 254.999 19.3 254.999 30.6C254.999 41.9 264.099 51 275.399 51C369.699 51 446.399 127.7 446.399 222C446.399 233.3 455.499 242.4 466.799 242.4V242.4Z" fill="black"/>
<path d="M363.699 232.2C374.999 232.2 384.099 223.1 384.099 211.8C384.099 157.5 339.899 113.2 285.499 113.2C274.199 113.2 265.099 122.3 265.099 133.6C265.099 144.9 274.199 154 285.499 154C317.299 154 343.199 179.9 343.199 211.7C343.299 223.1 352.399 232.2 363.699 232.2V232.2Z" fill="black"/>
</svg>
