<?xml version="1.0" standalone="no"?>
<!DOCTYPE svg PUBLIC "-//W3C//DTD SVG 20010904//EN"
 "http://www.w3.org/TR/2001/REC-SVG-20010904/DTD/svg10.dtd">
<svg version="1.0" xmlns="http://www.w3.org/2000/svg"
 width="280.000000pt" height="280.000000pt" viewBox="0 0 280.000000 280.000000"
 preserveAspectRatio="xMidYMid meet">
<metadata>
Created by potrace 1.11, written by Peter Selinger 2001-2013
</metadata>
<g transform="translate(0.000000,280.000000) scale(0.100000,-0.100000)"
fill="#000000" stroke="none">
<path d="M1331 2562 c-168 -173 -331 -463 -377 -672 -11 -53 -14 -67 -23 -115
-10 -53 -8 -309 3 -360 44 -200 112 -363 223 -535 85 -131 217 -280 248 -280
9 0 119 110 158 159 122 153 235 378 286 576 95 362 -6 760 -284 1120 -65 84
-147 165 -166 165 -6 0 -36 -26 -68 -58z"/>
<path d="M636 2377 c-35 -47 -116 -212 -116 -237 0 -3 37 -19 83 -35 45 -15
112 -42 149 -60 l66 -33 26 66 c13 37 35 91 47 119 23 52 23 53 3 68 -21 17
-88 64 -113 80 -53 34 -69 42 -93 53 -25 10 -29 9 -52 -21z"/>
<path d="M2065 2379 c-74 -38 -174 -110 -175 -125 0 -6 13 -40 29 -75 16 -35
37 -87 46 -116 l17 -52 31 18 c18 10 61 29 97 43 36 14 74 29 85 33 11 4 29
10 40 12 37 7 37 20 1 104 -30 70 -99 189 -109 189 -1 0 -29 -14 -62 -31z"/>
<path d="M45 2062 c-44 -9 -46 -18 -41 -156 14 -383 147 -720 370 -941 171
-169 423 -293 672 -330 21 -4 52 -8 68 -11 23 -4 27 -2 19 8 -189 239 -328
541 -358 777 -4 30 -9 63 -11 75 -14 63 0 309 22 387 8 27 -174 108 -332 148
-78 19 -100 23 -199 37 -60 8 -182 11 -210 6z"/>
<path d="M2510 2049 c-170 -24 -279 -56 -430 -126 l-61 -28 5 -40 c16 -116 20
-157 20 -235 0 -120 -12 -226 -36 -315 -5 -22 -11 -47 -13 -55 -26 -130 -182
-436 -296 -581 -41 -52 -45 -50 56 -35 27 4 86 17 138 31 9 3 25 7 35 9 96 22
288 119 393 198 232 174 393 464 455 818 17 94 25 352 12 365 -13 14 -167 11
-278 -6z"/>
<path d="M233 827 c10 -120 59 -227 138 -306 71 -69 218 -161 344 -213 114
-47 326 -100 461 -115 88 -10 347 -10 442 -1 322 33 650 167 816 332 61 61 96
121 120 206 35 125 17 206 -28 129 -25 -43 -137 -150 -204 -196 -132 -91 -351
-174 -520 -199 -20 -3 -43 -7 -49 -9 -57 -19 -464 -27 -611 -13 -175 18 -388
76 -523 143 -134 66 -273 176 -335 266 -41 60 -58 53 -51 -24z"/>
</g>
</svg>
